G04 ================== begin FILE IDENTIFICATION RECORD ==================*
G04 Layout Name:  C:/USERS/USER/DESKTOP/WORK/AVRUSB500/ALLEGRO/AVRUSB500.brd*
G04 Film Name:    BOTTOM*
G04 File Format:  Gerber RS274X*
G04 File Origin:  Cadence Allegro 16.6-S034*
G04 Origin Date:  Fri Jul 19 12:48:53 2019*
G04 *
G04 Layer:  ETCH/BOTTOM*
G04 Layer:  PIN/BOTTOM*
G04 Layer:  VIA CLASS/BOTTOM*
G04 *
G04 Offset:    (0.000 0.000)*
G04 Mirror:    No*
G04 Mode:      Positive*
G04 Rotation:  0*
G04 FullContactRelief:  No*
G04 UndefLineWidth:     0.000*
G04 ================== end FILE IDENTIFICATION RECORD ====================*
%FSLAX55Y55*MOMM*%
%IR0*IPPOS*OFA0.00000B0.00000*MIA0B0*SFA1.00000B1.00000*%
%ADD11C,1.321*%
%ADD10R,1.321X1.321*%
%ADD13C,1.575*%
%ADD14R,1.575X1.575*%
%ADD15O,1.9X1.2*%
%ADD12C,.61*%
%ADD16C,.254*%
%ADD17C,.381*%
%ADD18C,.382*%
%ADD20C,1.58*%
%ADD19C,1.834*%
%ADD23C,2.088*%
%ADD25O,2.412X1.712*%
%ADD21R,1.832X1.832*%
%ADD24R,2.086X2.088*%
%ADD22R,2.088X2.088*%
G75*
%LPD*%
G75*
G36*
G01X10699900Y300100D02*
X300100D01*
Y4199900D01*
X10699900D01*
Y300100D01*
G37*
%LPC*%
G75*
G36*
G01X2393900Y401100D02*
X2305100D01*
X2293800Y412400D01*
X2243100D01*
X2182500Y473000D01*
Y590200D01*
G03X2174600Y606800I-7921J6410D01*
G01X2067400D01*
Y726900D01*
X1950000Y844300D01*
X1606000D01*
X1488600Y726900D01*
Y606800D01*
X1305400D01*
Y653800D01*
X1044200D01*
Y606800D01*
X860800D01*
Y790200D01*
X1044200D01*
Y743200D01*
X1305400D01*
Y790200D01*
X1425400D01*
X1569000Y933700D01*
X1925900D01*
G03X1933100Y951100I3J10188D01*
G01X1930200Y954000D01*
Y1229000D01*
G02X2006800I38300J41000D01*
G01Y985800D01*
X2151600Y841000D01*
X2256700D01*
X2301500Y796200D01*
Y600800D01*
X2259100Y558400D01*
Y504800D01*
X2274900Y489000D01*
X2283800D01*
G03X2293900Y500600I-4J10200D01*
G02X2340300Y563300I55596J7376D01*
G01X2341900Y563600D01*
X2368300Y590000D01*
Y618400D01*
G02X2435200Y787500I44634J80125D01*
G01X2438000Y786800D01*
X3052700Y1401400D01*
X3108600D01*
X3115600Y1408400D01*
X3115900Y1410000D01*
G02X3215900Y1366900I55330J-9183D01*
G01Y1161500D01*
X3219700Y1157700D01*
Y980600D01*
X3266600D01*
Y860600D01*
X3384000Y743200D01*
X3855000D01*
X3923900Y812100D01*
G03X3916700Y829500I-7226J7200D01*
G01X3899200D01*
G02X3893400Y831300I-19J10183D01*
G03X3879800Y829600I-5862J-8356D01*
G02X3771700Y972300I-69848J59382D01*
G01Y1571600D01*
X3714900Y1628500D01*
X3711900Y1627500D01*
G02X3596000Y1743400I-28900J87000D01*
G01X3597000Y1746400D01*
X3329300Y2014000D01*
X3132200D01*
G02Y2090600I-41000J38300D01*
G01X3361100D01*
X3651100Y1800500D01*
X3654100Y1801500D01*
G02X3657300Y1802500I28942J-86995D01*
G01X3658500Y1802900D01*
X3663000Y1807400D01*
X3038500Y2431900D01*
X2892200D01*
G02Y2508500I-41000J38300D01*
G01X3070300D01*
X3721800Y1857000D01*
X3742000D01*
X3825500Y1773500D01*
Y1753300D01*
X4270500Y1308300D01*
X4304300D01*
G03X4311500Y1325700I-17J10197D01*
G01X3351000Y2286200D01*
G02X3354100Y2302700I7232J7182D01*
G03X3358300Y2304800I-22962J51174D01*
G01X3689900D01*
G03X3698600Y2320300I-10J10197D01*
G02X3691200Y2340300I47942J29107D01*
G01X3690900Y2341900D01*
X3638600Y2394200D01*
X3452800D01*
X3452200Y2389800D01*
G02X3341500Y2408200I-55583J7797D01*
G03X3331500Y2420300I-10014J1907D01*
G01X3252400D01*
X3240900Y2431800D01*
X3168900D01*
X3066800Y2533900D01*
Y2633100D01*
G02Y2700900I44700J33900D01*
G01Y2936400D01*
G03X3051700Y2945300I-10194J-36D01*
G02X3033900Y2940000I-21374J39244D01*
G03X3029200Y2934900I414J-5097D01*
G01Y2891400D01*
G02X2939800I-44700J-33900D01*
G01Y2995300D01*
X2955600Y3011100D01*
X2955900Y3012700D01*
G02X3049600Y3044400I55327J-9205D01*
G03X3066800Y3051800I7004J7411D01*
G01Y3395100D01*
G02X3156200I44700J33900D01*
G01Y2939800D01*
X3257300D01*
Y3522100D01*
G02X3357300Y3565200I44670J33917D01*
G01X3357600Y3563600D01*
X3418800Y3502400D01*
X3420400Y3502100D01*
G02X3466500Y3456000I-9200J-55300D01*
G01X3466800Y3454400D01*
X3574500Y3346700D01*
X4284100D01*
G02X4373300Y3311200I33873J-44703D01*
G01X4373600Y3309600D01*
X4516100Y3167100D01*
X4517700Y3166800D01*
G02X4542400Y3156200I-9125J-55340D01*
G01X4682400D01*
G02X4851500Y3089300I80125J-44634D01*
G01X4850800Y3086500D01*
X4934200Y3003000D01*
Y2855700D01*
X5609900Y2180000D01*
G03X5626900Y2184400I7197J7234D01*
G02X5628000Y2187900I88002J-25735D01*
G01X5629000Y2190900D01*
X5232200Y2587600D01*
Y3349600D01*
X5127600Y3454200D01*
X5002500D01*
X4997400Y3449100D01*
X4908600D01*
X4903500Y3454200D01*
X4168500D01*
G02Y3530800I-41000J38300D01*
G01X4888400D01*
G03X4898400Y3543300I49J10211D01*
G02X4994000Y3594300I54633J12691D01*
G01X5064100D01*
X5184500Y3714600D01*
X5183500Y3717600D01*
G02X5241600Y3659500I87000J28900D01*
G01X5238600Y3660500D01*
X5126400Y3548200D01*
G03X5133600Y3530800I7197J-7212D01*
G01X5318100D01*
X5953100Y4165800D01*
X7318400D01*
X8080400Y3403800D01*
X8715400D01*
X8761100Y3358100D01*
X8763200D01*
G02X8816500Y3285000I-179J-56112D01*
G03X8826200Y3271700I9697J-3115D01*
G01X8907400D01*
G02Y3195100I41000J-38300D01*
G01X8053700D01*
X8002900Y3245900D01*
X8000800D01*
G02X7994700Y3357700I326J56084D01*
G03X8000700Y3375100I-1166J10137D01*
G01X7286600Y4089200D01*
X5984900D01*
X5349900Y3454200D01*
X5260600D01*
G03X5253400Y3436800I-3J-10188D01*
G01X5308800Y3381400D01*
Y2619400D01*
X5683100Y2245000D01*
X5686100Y2246000D01*
G02X5779900Y2094200I28902J-87022D01*
G03X5787100Y2076800I7208J-7207D01*
G01X6585400D01*
X6728900Y1933300D01*
X6795300D01*
X6842300Y1886300D01*
X7220400D01*
X7388200Y1718500D01*
X7751300D01*
X7939200Y1906400D01*
G03X7932000Y1923800I-7226J7200D01*
G01X7411000D01*
X7274100Y2060600D01*
X7271200Y2059700D01*
G02X7338300Y2126800I-32200J99300D01*
G01X7337400Y2123900D01*
X7448000Y2013200D01*
X8273500D01*
X8336800Y1949900D01*
X8472800D01*
X8552000Y1870700D01*
G03X8569300Y1876200I7235J7202D01*
G02X8591300Y1912000I55299J-9323D01*
G01Y2394500D01*
X8374400Y2611400D01*
X8372800Y2611700D01*
G02X8327400Y2679700I9218J55310D01*
G03X8317400Y2692200I-9951J2289D01*
G01X7352600D01*
G03X7342500Y2680700I12J-10196D01*
G02X7174900Y2749400I-103497J-13702D01*
G03X7175900Y2764700I-6234J8090D01*
G01X7121300Y2819200D01*
X5921400D01*
X5737500Y2635400D01*
X5738500Y2632400D01*
G02X5680400Y2690500I-87000J-28900D01*
G01X5683400Y2689500D01*
X5889600Y2895800D01*
X6602500D01*
G03X6609000Y2913900I45J10201D01*
G02X6726000I58500J70600D01*
G03X6732500Y2895800I6455J-7899D01*
G01X7125400D01*
G03X7135500Y2907300I-12J10196D01*
G02X7293000Y2831700I103481J13723D01*
G01X7290600Y2830200D01*
Y2822200D01*
X7303300D01*
X7356700Y2768800D01*
X8176300D01*
G03X8183700Y2786000I-14J10198D01*
G02X8258400Y2869200I40804J38499D01*
G01X8316600D01*
X8346600Y2839200D01*
X8389300Y2881900D01*
Y2907100D01*
X8459400Y2977200D01*
X8558600D01*
X8628700Y2907100D01*
Y2807900D01*
X8584800Y2764000D01*
Y2744200D01*
X8476400Y2635800D01*
X8680700Y2431500D01*
Y1860000D01*
X8707100Y1833600D01*
X8708700Y1833300D01*
G02X8746000Y1746600I-9197J-55330D01*
G03X8754400Y1730700I8447J-5706D01*
G01X8921800D01*
X9315700Y1336800D01*
Y1286600D01*
G02X9190900Y1161800I-44700J-80100D01*
G01X8908500D01*
X8343300Y596500D01*
X8344000Y593700D01*
G02X8277200Y660500I-89000J-22200D01*
G01X8280000Y659800D01*
X8871500Y1251200D01*
X9190900D01*
G02X9223800Y1285100I80037J-44762D01*
G01X9226300Y1286600D01*
Y1299800D01*
X8884800Y1641300D01*
X8723100D01*
X8683000Y1601200D01*
X8589300D01*
Y1348800D01*
G02X8499900I-44700J0D01*
G01Y1355000D01*
G03X8491200Y1358600I-5098J-9D01*
G01X8360100Y1227500D01*
G02X8354700Y1224700I-7182J7244D01*
G03X8346400Y1213800I1866J-10031D01*
G02X8184400Y1148000I-91403J-7288D01*
G03X8166300Y1141500I-7899J-6455D01*
G01Y873100D01*
X7705600Y412400D01*
X2405200D01*
X2393900Y401100D01*
G37*
G36*
G01X563600Y1658600D02*
X797100Y1425200D01*
X917200D01*
Y1241800D01*
X733800D01*
Y1361900D01*
X500400Y1595400D01*
X498800Y1595700D01*
G02X563300Y1660200I9200J55300D01*
G01X563600Y1658600D01*
G37*
G36*
G01X10242300Y3029500D02*
X10124900Y3146800D01*
X10004800D01*
Y3330200D01*
X10188200D01*
Y3210100D01*
X10331700Y3066500D01*
Y2140500D01*
X10188200Y1996900D01*
Y1876800D01*
X10004800D01*
Y2060200D01*
X10124900D01*
X10242300Y2177500D01*
Y3029500D01*
G37*
G36*
G01X5984900Y2946200D02*
X5734800D01*
G02Y3022800I-83300J38300D01*
G01X5953100D01*
X6334100Y3403800D01*
X6602500D01*
G03X6609000Y3421900I45J10201D01*
G02X6726000I58500J70600D01*
G03X6732500Y3403800I6455J-7899D01*
G01X7445400D01*
X7738800Y3110400D01*
X8761400D01*
G02Y3033800I41000J-38300D01*
G01X7707000D01*
X7413600Y3327200D01*
X6365900D01*
X5984900Y2946200D01*
G37*
G54D20*
X9271000Y571500D03*
G54D19*
X10350500Y3810000D03*
X10096500Y2984500D03*
Y2222500D03*
X9334500Y3810000D03*
Y3175000D03*
Y2413000D03*
X8318500Y3683000D03*
X6667500Y2603500D03*
X6731000Y2159000D03*
X5651500Y3492500D03*
X4254500Y3746500D03*
X2921000Y1714500D03*
X2349500Y2921000D03*
Y3238500D03*
Y2222500D03*
Y2603500D03*
X1333500Y2921000D03*
Y3238500D03*
Y2222500D03*
Y2603500D03*
X1651000Y698500D03*
X825500Y1587500D03*
X698500Y698500D03*
G54D23*
X7239000Y2413000D03*
X1333500Y3937000D03*
X1079500D03*
X825500D03*
X571500D03*
Y3048000D03*
Y2794000D03*
Y2540000D03*
Y2286000D03*
G54D25*
X10149000Y440000D03*
X9779000D03*
Y1465000D03*
X10149000D03*
G54D21*
X8636000Y3683000D03*
G54D24*
X1587500Y3937000D03*
X571500Y3302000D03*
G54D22*
X7239000Y3175000D03*
%LPD*%
G75*
G54D10*
X952500Y698500D03*
X825500Y1333500D03*
X1397000Y698500D03*
X2159000D03*
X3175000Y889000D03*
X4064000D03*
X4635500Y1206500D03*
X4762500Y2857500D03*
X8636000Y3683000D03*
X10096500Y1968500D03*
Y3238500D03*
G54D11*
X698500Y698500D03*
X825500Y1587500D03*
X1651000Y698500D03*
X1333500Y2603500D03*
Y2222500D03*
Y3238500D03*
Y2921000D03*
X2413000Y698500D03*
X2349500Y2603500D03*
Y2222500D03*
Y3238500D03*
Y2921000D03*
X2921000Y889000D03*
Y1714500D03*
X3810000Y889000D03*
X3683000Y1714500D03*
X4635500Y1460500D03*
X4762500Y3111500D03*
X4254500Y3746500D03*
X5715000Y1016000D03*
Y1397000D03*
Y1778000D03*
Y2159000D03*
X5651500Y2603500D03*
Y2984500D03*
Y3492500D03*
X5270500Y3746500D03*
X6731000Y1016000D03*
Y1397000D03*
Y1778000D03*
Y2159000D03*
X6667500Y2603500D03*
Y2984500D03*
Y3492500D03*
X8255000Y571500D03*
Y1206500D03*
X8318500Y3683000D03*
X9271000Y571500D03*
Y1206500D03*
X9334500Y2413000D03*
Y3175000D03*
Y3810000D03*
X10096500Y2222500D03*
Y2984500D03*
X10350500Y3810000D03*
G54D12*
X508000Y1651000D03*
D03*
X2349500Y508000D03*
X1968500Y1270000D03*
X3171200Y1400800D03*
X3396600Y2397600D03*
X3302000Y2540000D03*
X2851200Y2470200D03*
X3111500Y2667000D03*
X3091200Y2052300D03*
X3429000Y2857500D03*
X2984500D03*
X3011200Y3003500D03*
D03*
X3411200D03*
X3111500Y3429000D03*
X3411200Y3446800D03*
X3302000Y3556000D03*
X3746500Y2349500D03*
X4116100Y2973100D03*
X4127500Y3492500D03*
X4318000Y1778000D03*
X4508500Y3111500D03*
D03*
X4318000Y3302000D03*
X4953000Y3556000D03*
X5524500Y1905000D03*
X8001000Y3302000D03*
X8699500Y1778000D03*
X8191500D03*
X8544600Y1708800D03*
X8624600Y1866900D03*
X8544600Y1708800D03*
X8128000Y1587500D03*
X8382000Y2667000D03*
X8224500Y2824500D03*
X8509000Y2857500D03*
X8763000Y3302000D03*
X8802400Y3072100D03*
X8948400Y3233400D03*
G54D13*
X571500Y2286000D03*
Y2540000D03*
Y2794000D03*
Y3048000D03*
Y3937000D03*
X825500D03*
X1079500D03*
X1333500D03*
X7239000Y2159000D03*
Y2413000D03*
Y2667000D03*
Y2921000D03*
G54D14*
X571500Y3302000D03*
X1587500Y3937000D03*
X7239000Y3175000D03*
G54D15*
X10149000Y440000D03*
X9779000D03*
Y1465000D03*
X10149000D03*
G54D16*
G01X1968500Y1270000D02*
Y969900D01*
X2135700Y802700D01*
X2240800D01*
X2263200Y780300D01*
Y616700D01*
X2220800Y574300D01*
Y488900D01*
X2259000Y450700D01*
X2309700D01*
X2321000Y439400D01*
X2378000D01*
X2389300Y450700D01*
X7689700D01*
X8128000Y889000D01*
Y1587500D01*
G01X2851200Y2470200D02*
X3054400D01*
X3705900Y1818700D01*
X3726100D01*
X3787200Y1757600D01*
Y1737400D01*
X4254600Y1270000D01*
X4513000D01*
X4553700Y1310700D01*
X5166300D01*
X5842000Y635000D01*
X7048500D01*
X8191500Y1778000D01*
G01X3091200Y2052300D02*
X3345200D01*
X3683000Y1714500D01*
G01X3810000Y889000D02*
Y1587500D01*
X3683000Y1714500D01*
G01X5715000Y1016000D02*
X4699000Y2032000D01*
X4191000D01*
X4116100Y2106900D01*
Y2973100D01*
G01X3429000Y2857500D02*
Y2921000D01*
X3683000Y3175000D01*
X4028600D01*
X5715000Y1488600D01*
Y1397000D01*
G01X4127500Y3492500D02*
X4919400D01*
X4924500Y3487400D01*
X4981500D01*
X4986600Y3492500D01*
X5143500D01*
G01D02*
X5270500Y3365500D01*
Y2603500D01*
X5715000Y2159000D01*
G01X8509000Y2857500D02*
X8387100Y2735600D01*
X8353500D01*
X8348400Y2730500D01*
X7340800D01*
X7287400Y2783900D01*
X7210800D01*
X7137200Y2857500D01*
X5905500D01*
X5651500Y2603500D01*
G01Y2984500D02*
X5969000D01*
X6350000Y3365500D01*
X7429500D01*
X7722900Y3072100D01*
X8802400D01*
G01X4953000Y3556000D02*
X5080000D01*
X5270500Y3746500D01*
G01X8763000Y3302000D02*
X8699500Y3365500D01*
X8064500D01*
X7302500Y4127500D01*
X5969000D01*
X5334000Y3492500D01*
X5143500D01*
G01X8001000Y3302000D02*
X8069600Y3233400D01*
X8948400D01*
G01X9271000Y571500D02*
X9355100D01*
G01X9186900D02*
X9271000D01*
G01D02*
Y655600D01*
G01Y487400D02*
Y571500D01*
G54D17*
G01X2349500Y508000D02*
X2413000Y571500D01*
Y698500D01*
G01D02*
X3071200Y1356700D01*
X3127100D01*
X3171200Y1400800D01*
G01D02*
Y1143000D01*
G01X10096500Y1968500D02*
X10287000Y2159000D01*
Y3048000D01*
X10096500Y3238500D01*
G54D18*
G01X952500Y698500D02*
X1397000D01*
G01X508000Y1651000D02*
X825500Y1333500D01*
G01X2159000Y698500D02*
X1968500Y889000D01*
X1587500D01*
X1397000Y698500D01*
G01X3175000Y889000D02*
X3365500Y698500D01*
X3873500D01*
X4064000Y889000D01*
G01X3171200Y1143000D02*
X3175000Y1139200D01*
Y889000D01*
G01X3746500Y2349500D02*
X3619500Y2476500D01*
X3344600D01*
X3333100Y2465000D01*
X3270900D01*
X3259400Y2476500D01*
X3187400D01*
X3111500Y2552400D01*
Y2667000D01*
G01X3302000Y2540000D02*
Y2823900D01*
X3296900Y2829000D01*
Y2886000D01*
X3302000Y2891100D01*
Y3556000D01*
G01X2984500Y2857500D02*
Y2976800D01*
X3011200Y3003500D01*
G01D02*
X3030200Y2984500D01*
G01X3392200D02*
X3411200Y3003500D01*
G01X3111500Y2667000D02*
Y3429000D01*
G01X3411200Y3446800D02*
X3302000Y3556000D01*
G01X4064000Y889000D02*
X4318000D01*
X4635500Y1206500D01*
G01X4318000Y1778000D02*
X3746500Y2349500D01*
G01X3411200Y3446800D02*
X3556000Y3302000D01*
X4318000D01*
G01X8313500Y1910000D02*
X8255600D01*
X8249000Y1916600D01*
X8134000D01*
X8127400Y1910000D01*
X8006000D01*
X7769800Y1673800D01*
X7369700D01*
X7201900Y1841600D01*
X6823800D01*
X6776800Y1888600D01*
X6710400D01*
X6566900Y2032100D01*
X5694600D01*
X5678300Y2048400D01*
X5669200D01*
X5604400Y2113200D01*
Y2122300D01*
X4889500Y2837200D01*
Y2984500D01*
X4762500Y3111500D01*
G01D02*
X4508500D01*
G01X4318000Y3302000D02*
X4508500Y3111500D01*
G01X5524500Y1905000D02*
X5652800D01*
X5669200Y1888600D01*
X5678300D01*
X5758200Y1968500D01*
X6540500D01*
X6731000Y1778000D01*
G01X8544600Y1708800D02*
X8411800Y1841600D01*
X8234000D01*
X8222600Y1853000D01*
X8160400D01*
X7753700Y1446300D01*
X7507200D01*
X7175500Y1778000D01*
X6731000D01*
G01X7239000Y2159000D02*
X7429500Y1968500D01*
X8255000D01*
X8313500Y1910000D01*
G01X9271000Y1206500D02*
X8890000D01*
X8255000Y571500D01*
G01X8313500Y1910000D02*
X8318300Y1905200D01*
X8454300D01*
X8581500Y1778000D01*
X8699500D01*
G01X8544600Y1348800D02*
Y1708800D01*
G01D02*
X8607500Y1645900D01*
X8664500D01*
X8704600Y1686000D01*
X8903300D01*
X9271000Y1318300D01*
Y1206500D01*
G01X8636000Y1855500D02*
Y1841500D01*
X8699500Y1778000D01*
G01X8382000Y2667000D02*
X8636000Y2413000D01*
Y1855500D01*
G01D02*
X8624600Y1866900D01*
G01X8224500Y2824500D02*
X8298100D01*
X8329800Y2792800D01*
X8363400D01*
X8434000Y2863400D01*
Y2888600D01*
X8477900Y2932500D01*
X8540100D01*
X8584000Y2888600D01*
Y2826400D01*
X8540100Y2782500D01*
Y2762700D01*
X8444400Y2667000D01*
X8382000D01*
M02*
