G04 ================== begin FILE IDENTIFICATION RECORD ==================*
G04 Layout Name:  C:/USERS/USER/DESKTOP/WORK/AVRUSB500/ALLEGRO/AVRUSB500.brd*
G04 Film Name:    Design*
G04 File Format:  Gerber RS274X*
G04 File Origin:  Cadence Allegro 16.6-S034*
G04 Origin Date:  Fri Jul 19 12:48:53 2019*
G04 *
G04 Layer:  VIA CLASS/BOTTOM*
G04 Layer:  VIA CLASS/TOP*
G04 Layer:  ROUTE KEEPOUT/ALL*
G04 Layer:  ROUTE KEEPIN/ALL*
G04 Layer:  REF DES/SILKSCREEN_TOP*
G04 Layer:  REF DES/SILKSCREEN_BOTTOM*
G04 Layer:  PIN/BOTTOM*
G04 Layer:  PIN/TOP*
G04 Layer:  PACKAGE KEEPIN/ALL*
G04 Layer:  PACKAGE GEOMETRY/PIN_NUMBER*
G04 Layer:  PACKAGE GEOMETRY/SILKSCREEN_TOP*
G04 Layer:  PACKAGE GEOMETRY/SILKSCREEN_BOTTOM*
G04 Layer:  PACKAGE GEOMETRY/SOLDERMASK_TOP*
G04 Layer:  PACKAGE GEOMETRY/SOLDERMASK_BOTTOM*
G04 Layer:  PACKAGE GEOMETRY/PASTEMASK_TOP*
G04 Layer:  PACKAGE GEOMETRY/PASTEMASK_BOTTOM*
G04 Layer:  ETCH/BOTTOM*
G04 Layer:  ETCH/TOP*
G04 Layer:  BOARD GEOMETRY/OUTLINE*
G04 Layer:  BOARD GEOMETRY/SILKSCREEN_TOP*
G04 Layer:  BOARD GEOMETRY/SILKSCREEN_BOTTOM*
G04 Layer:  BOARD GEOMETRY/SOLDERMASK_TOP*
G04 Layer:  BOARD GEOMETRY/SOLDERMASK_BOTTOM*
G04 *
G04 Offset:    (0.000 0.000)*
G04 Mirror:    No*
G04 Mode:      Positive*
G04 Rotation:  0*
G04 FullContactRelief:  No*
G04 UndefLineWidth:     0.000*
G04 ================== end FILE IDENTIFICATION RECORD ====================*
%FSLAX55Y55*MOMM*%
%IR0*IPPOS*OFA0.00000B0.00000*MIA0B0*SFA1.00000B1.00000*%
%ADD20R,1.72X.4*%
%ADD11C,1.321*%
%ADD10R,1.321X1.321*%
%ADD13C,1.575*%
%ADD14R,1.575X1.575*%
%ADD17O,.457X1.778*%
%ADD15O,1.778X.457*%
%ADD18R,.457X1.778*%
%ADD16R,1.778X.457*%
%ADD19O,1.9X1.2*%
%ADD21R,1.72X1.1*%
%ADD12C,.61*%
%ADD22C,.203*%
%ADD23C,.254*%
%ADD24C,.381*%
%ADD25C,.382*%
%ADD38C,1.122*%
%ADD33C,1.58*%
%ADD26C,1.834*%
%ADD35C,2.088*%
%ADD34R,.66X1.982*%
%ADD42O,2.104X1.404*%
%ADD37O,2.412X1.712*%
%ADD36C,.814*%
%ADD39R,1.58X1.58*%
%ADD28R,1.832X1.832*%
%ADD40R,1.832X1.834*%
%ADD41R,1.834X1.834*%
%ADD27R,2.086X2.088*%
%ADD32R,.66X.766*%
%ADD31R,2.088X2.088*%
%ADD30R,1.578X1.578*%
%ADD29R,.766X.766*%
G75*
%LPD*%
G75*
G36*
G01X300100Y300100D02*
Y4199900D01*
X10699900D01*
Y300100D01*
X300100D01*
G37*
%LPC*%
G75*
G36*
G01X1176500Y3975500D02*
G02X1118000Y4034000I-97000J-38500D01*
G01X1120000Y4033200D01*
G02X1175700Y3977500I-40500J-96200D01*
G01X1176500Y3975500D01*
G37*
G36*
G01X1234200Y3904800D02*
G02X1295200Y3839900I99296J32212D01*
G02X1234200Y3904800I38302J97117D01*
G37*
G36*
G01X921700Y3896500D02*
G02X750800Y4009900I-96222J40466D01*
G02X922500Y3898500I74626J-73000D01*
G01X921700Y3896500D01*
G37*
G36*
G01X5689800Y3794100D02*
X5613200Y3717500D01*
Y3825900D01*
X5689800Y3902500D01*
Y3794100D01*
G37*
G36*
G01X4292800Y3663200D02*
G02X4216200I-38300J83295D01*
G02X4165200Y3725800I38325J83298D01*
G02X4345500Y3735500I89296J20730D01*
G02X4292800Y3663200I-91027J10994D01*
G37*
G36*
G01X4127700Y3548600D02*
G02X4071400Y3492300I-200J-56100D01*
G01Y3493300D01*
G02X4126700Y3548600I56100J-800D01*
G01X4127700D01*
G37*
G36*
G01X5680400Y3405500D02*
G02X5613200Y3575800I-28784J87051D01*
G02X5689800I38300J-83300D01*
G02X5738500Y3463600I-38311J-83298D01*
G01X5737800Y3461500D01*
G02X5682500Y3406200I-86300J31000D01*
G01X5680400Y3405500D01*
G37*
G36*
G01X5308800Y3381400D02*
Y3273100D01*
X5014000Y3567800D01*
X5008800Y3562600D01*
X5008900Y3560200D01*
G02X5009100Y3556200I-55870J-4799D01*
G01Y3554100D01*
X5109000Y3454200D01*
X5002500D01*
X5001600Y3453200D01*
X4954900Y3499900D01*
X4952800D01*
G02X4946700Y3611700I326J56084D01*
G03X4947300Y3611800I-1375J10102D01*
G02X4994000Y3594300I5719J-55801D01*
G01X5064100D01*
X5184500Y3714600D01*
X5183500Y3717600D01*
G02X5241600Y3659500I87000J28900D01*
G01X5238600Y3660500D01*
X5126400Y3548200D01*
G03X5133600Y3530800I7197J-7212D01*
G01X5318100D01*
X5499300Y3712000D01*
Y3603600D01*
X5349900Y3454200D01*
X5260600D01*
G03X5253400Y3436800I-3J-10188D01*
G01X5308800Y3381400D01*
G37*
G36*
G01X8019100Y3338500D02*
G02X7964500Y3283900I-18100J-36500D01*
G01X7964200Y3284700D01*
X7945100Y3303800D01*
G02X7994700Y3357700I56046J-1804D01*
G03X7998300Y3358800I-1132J10145D01*
G01X8018300Y3338800D01*
X8019100Y3338500D01*
G37*
G36*
G01X8505600Y3195100D02*
X8339800D01*
Y3204900D01*
X8538700Y3403800D01*
X8715400D01*
X8734900Y3384300D01*
X8645600D01*
X8603600Y3342300D01*
G03X8610800Y3324900I7226J-7200D01*
G01X8729400D01*
G02Y3279100I33600J-22900D01*
G01X8589600D01*
X8505600Y3195100D01*
G37*
G36*
G01X8182800D02*
X8106200D01*
Y3265800D01*
X8244200Y3403800D01*
X8352600D01*
X8182800Y3234000D01*
Y3195100D01*
G37*
G36*
G01X8971300Y3182200D02*
G02X8925500I-22900J51200D01*
G01Y3199800D01*
G02X8971300I22900J33600D01*
G01Y3182200D01*
G37*
G36*
G01X1423800Y3222800D02*
G02X1250200Y3200200I-90327J15794D01*
G02X1423800Y3222800I83281J38333D01*
G37*
G36*
G01X2364200Y3148000D02*
G02X2263800Y3205900I-14706J90497D01*
G02X2258900Y3252500I85709J32570D01*
G02X2436500Y3209600I90610J-13957D01*
G01X2435800Y3207500D01*
G02X2364700Y3148100I-86281J31024D01*
G03X2364200Y3148000I1749J-10045D01*
G37*
G36*
G01X6175400Y3136700D02*
X6067000D01*
X6143600Y3213300D01*
X6252000D01*
X6175400Y3136700D01*
G37*
G36*
G01X8337600Y3033800D02*
X8271400D01*
Y3110400D01*
X8497600D01*
Y3033800D01*
X8431400D01*
Y3045100D01*
X8422100Y3047900D01*
G02X8417600Y3042000I-37684J24076D01*
G01Y3033800D01*
X8351400D01*
Y3042000D01*
G02X8346900Y3047900I33184J29976D01*
G01X8337600Y3045100D01*
Y3033800D01*
G37*
G36*
G01X8097600D02*
X8031400D01*
Y3110400D01*
X8260200D01*
Y3033800D01*
X8188800D01*
Y3058500D01*
X8180400D01*
X8179100Y3055600D01*
G02X8177600Y3052700I-34780J16152D01*
G01Y3033800D01*
X8111400D01*
Y3052700D01*
G02X8107600Y3062000I33257J19015D01*
G01X8106500Y3065700D01*
X8097600D01*
Y3033800D01*
G37*
G36*
G01X8768800Y3095000D02*
G02Y3049200I33600J-22900D01*
G01X8657600D01*
Y3033800D01*
X8591600D01*
Y3110400D01*
X8657600D01*
Y3095000D01*
X8768800D01*
G37*
G36*
G01X3156200Y3213200D02*
Y3022400D01*
G02X3138200Y3051800I14987J29386D01*
G01Y3183800D01*
G02X3156200Y3213200I32987J14D01*
G37*
G36*
G01X3284200Y3051800D02*
G02X3257300Y3019300I-33006J-64D01*
G01Y3216300D01*
G02X3284200Y3183800I-6106J-32436D01*
G01Y3051800D01*
G37*
G36*
G01X3124200D02*
G02X3059600Y3042100I-33013J-99D01*
G03X3066800Y3051800I-2985J9738D01*
G01Y3312600D01*
X3082200Y3328000D01*
Y3400800D01*
G02X3140800I29300J28200D01*
G01Y3303800D01*
X3120500Y3283500D01*
Y3199200D01*
X3121000Y3198100D01*
G02X3124200Y3183800I-29827J-14183D01*
G01Y3051800D01*
G37*
G36*
G01X3447000D02*
G02X3375400I-35800J-50D01*
G01Y3183800D01*
G02X3447000I35800J50D01*
G01Y3051800D01*
G37*
G36*
G01X3046700Y3047000D02*
G02X2975700Y3046900I-35507J4692D01*
G02X3046700Y3047000I35561J-43394D01*
G37*
G36*
G01X8480700Y2977200D02*
G02X8456200Y2974000I-16227J28848D01*
G01X8459400Y2977200D01*
X8480700D01*
G37*
G36*
G01X10067600Y3071500D02*
G02X10009500Y3013400I28900J-87000D01*
G01X10010200Y3015500D01*
G02X10065500Y3070800I86300J-31000D01*
G01X10067600Y3071500D01*
G37*
G36*
G01X5713900Y2917300D02*
G02X5564500Y3013400I-62376J67209D01*
G01X5564900Y3014700D01*
G02X5734800Y3022800I86582J-30187D01*
G01X5816800D01*
Y2946200D01*
X5734800D01*
G02X5713900Y2917300I-83329J38255D01*
G37*
G36*
G01X2378400Y2834000D02*
G02X2436500Y2892100I-28900J87000D01*
G01X2435800Y2890000D01*
G02X2380500Y2834700I-86300J31000D01*
G01X2378400Y2834000D01*
G37*
G36*
G01X1304600Y3008000D02*
G02X1246500Y2949900I28900J-87000D01*
G01X1247200Y2952000D01*
G02X1302500Y3007300I86300J-31000D01*
G01X1304600Y3008000D01*
G37*
G36*
G01X7291500Y2830800D02*
G02X7141900Y2882700I-52510J90201D01*
G01X7118900D01*
X7105800Y2895800D01*
X7125400D01*
G03X7135500Y2907300I-12J10196D01*
G02X7150200Y2976000I103486J13779D01*
G03X7150800Y2976800I-7849J6512D01*
G02X7327000Y2977100I88195J-55820D01*
G02X7293000Y2831700I-88028J-56091D01*
G01X7291500Y2830800D01*
G37*
G36*
G01X7985800Y2734200D02*
X7853600D01*
G02X7820600Y2768800I60J33095D01*
G01X8018800D01*
G02X7985800Y2734200I-33060J-1505D01*
G37*
G36*
G01X5271200Y2694700D02*
X5232200D01*
Y2771300D01*
X5239400D01*
X5293200Y2825100D01*
Y3161600D01*
X5232200Y3222600D01*
Y3331000D01*
X5308800Y3254400D01*
Y2732300D01*
X5271200Y2694700D01*
G37*
G36*
G01X8018500Y2692200D02*
X7820900D01*
G02X7853600Y2720400I32740J-4905D01*
G01X7985800D01*
G02X8018500Y2692200I-40J-33105D01*
G37*
G36*
G01X8573900Y2733300D02*
X8515300Y2674700D01*
Y2737900D01*
X8493600Y2759600D01*
X8468400D01*
X8411100Y2816900D01*
Y2842100D01*
X8380300Y2872900D01*
X8389300Y2881900D01*
Y2907100D01*
X8413800Y2931600D01*
Y2922200D01*
X8458700Y2877400D01*
G03X8474500Y2879100I7219J7178D01*
G02X8514200Y2897900I34521J-21582D01*
G01X8516700Y2897600D01*
X8521700Y2902600D01*
Y2977200D01*
X8558600D01*
X8567500Y2968300D01*
Y2883600D01*
X8549100Y2865200D01*
X8549400Y2862700D01*
G02X8530600Y2823000I-40382J-5179D01*
G03X8528900Y2807200I5478J-8581D01*
G01X8573900Y2762100D01*
Y2733300D01*
G37*
G36*
G01X7141900Y2705300D02*
G02X7150800Y2611200I97108J-38286D01*
G03X7150400Y2611800I-8702J-5368D01*
G02X7141900Y2705300I88609J55192D01*
G37*
G36*
G01X3490000Y2540000D02*
G02X3475700Y2543200I-117J33027D01*
G01X3474600Y2543700D01*
X3341200D01*
X3314600Y2570300D01*
X3289400D01*
X3262800Y2543700D01*
X3066800D01*
Y2602300D01*
X3238600D01*
X3242600Y2606300D01*
G03X3235300Y2623700I-7238J7195D01*
G01X3113400D01*
X3110800Y2626300D01*
X3108900Y2626400D01*
G02X3147900Y2685100I2572J40597D01*
G01X3149300Y2682300D01*
X3474600D01*
X3475700Y2682800D01*
G02X3490000Y2686000I14183J-29827D01*
G01X3549600D01*
Y2695000D01*
X3545900Y2696100D01*
G02X3536600Y2700000I10025J36943D01*
G01X3490000D01*
G02Y2766000I-50J33000D01*
G01X3536600D01*
G02X3541100Y2768300I19641J-32877D01*
G03Y2777700I-1935J4700D01*
G02X3536600Y2780000I15141J35177D01*
G01X3490000D01*
G02X3457000Y2810600I-60J33029D01*
G03X3443200Y2819400I-10187J-754D01*
G02X3447300Y2893900I-14197J38144D01*
G01X3450500Y2892200D01*
X3457400Y2899100D01*
X3457700Y2900500D01*
G02X3490000Y2926200I32246J-7379D01*
G01X3536600D01*
G02X3541100Y2928400I19053J-33270D01*
G03Y2937800I-1935J4700D01*
G02X3536600Y2940000I14553J35470D01*
G01X3490000D01*
G02Y3006200I-50J33100D01*
G01X3536600D01*
G02X3556000Y3011400I19278J-33133D01*
G01X4075100D01*
G02X4171800Y2979400I40969J-38306D01*
G03X4189200Y2973400I10137J1166D01*
G01X4216200Y3000400D01*
Y3252500D01*
X4211100Y3257600D01*
Y3346400D01*
X4211400Y3346700D01*
X4284100D01*
G02X4292800Y3352100I33802J-44750D01*
G01Y3319700D01*
X4287700Y3314600D01*
Y3289400D01*
X4292800Y3284300D01*
Y2968600D01*
X4194200Y2870000D01*
X4164300D01*
X4160500Y2866200D01*
X4071700D01*
X4067900Y2870000D01*
X3701400D01*
X3691400Y2860000D01*
G03X3695000Y2851300I3588J-3610D01*
G01X4429100D01*
X4473600Y2895800D01*
X4670800D01*
Y2949200D01*
X4854200D01*
Y2771300D01*
X5018600D01*
X5095200Y2694700D01*
X3651700D01*
G03X3644700Y2677100I-7J-10189D01*
G02X3622000Y2620000I-22647J-24059D01*
G01X3585300D01*
Y2606000D01*
X3622000D01*
G02Y2540000I50J-33000D01*
G01X3490000D01*
G37*
G36*
G01X5738500Y2632400D02*
G02X5680400Y2690500I-87000J-28900D01*
G01X5683400Y2689500D01*
X5816800Y2823000D01*
Y2714700D01*
X5737500Y2635400D01*
X5738500Y2632400D01*
G37*
G36*
G01X1304600Y2690500D02*
G02X1246500Y2632400I28900J-87000D01*
G01X1247200Y2634500D01*
G02X1302500Y2689800I86300J-31000D01*
G01X1304600Y2690500D01*
G37*
G36*
G01X2380500Y2689800D02*
G02X2257900Y2599700I-30986J-86298D01*
G02X2378400Y2690500I91618J3771D01*
G01X2380500Y2689800D01*
G37*
G36*
G01X3490000Y2460000D02*
G02Y2526000I-50J33000D01*
G01X3622000D01*
G02Y2460000I50J-33000D01*
G01X3490000D01*
G37*
G36*
G01X8680700Y2414200D02*
X8670200D01*
Y2442000D01*
X8680700Y2431500D01*
Y2414200D01*
G37*
G36*
G01X2892200Y2431900D02*
G02X2804500Y2501300I-41003J38298D01*
G03X2821500Y2498000I9528J3643D01*
G02X2891700Y2474000I29693J-27815D01*
G01X2892200Y2469300D01*
X2901900D01*
Y2478400D01*
X2932000Y2508500D01*
X3014800D01*
X2960500Y2454200D01*
Y2431900D01*
X2892200D01*
G37*
G36*
G01X8573900Y2538300D02*
Y2411900D01*
X8515300Y2470500D01*
Y2596900D01*
X8573900Y2538300D01*
G37*
G36*
G01X3655100Y2380000D02*
X3652800D01*
X3638600Y2394200D01*
X3456900D01*
Y2446000D01*
X3655100D01*
Y2380000D01*
G37*
G36*
G01X3352300Y2363200D02*
G02X3360800Y2354400I-21128J-28913D01*
G02X3352300Y2363200I35870J43152D01*
G37*
G36*
G01X3107400Y2363000D02*
G02X3120000Y2350400I-16173J-28773D01*
G01X3107400Y2363000D01*
G37*
G36*
G01X8680700Y2391500D02*
Y2343100D01*
G02Y2391500I22550J24200D01*
G37*
G36*
G01X3435200Y2356900D02*
G02X3379700Y2344100I-38614J40704D01*
G02X3435200Y2356900I31498J-9849D01*
G37*
G36*
G01X7142000Y2374500D02*
G02X7200500Y2316000I97000J38500D01*
G01X7198500Y2316800D01*
G02X7142800Y2372500I40500J96200D01*
G01X7142000Y2374500D01*
G37*
G36*
G01X3367000Y2304800D02*
Y2270200D01*
X3351000Y2286200D01*
G02X3354100Y2302700I7232J7182D01*
G03X3358300Y2304800I-22962J51174D01*
G01X3367000D01*
G37*
G36*
G01X3444200Y2202200D02*
G02X3443200Y2194000I-33037J-132D01*
G01X3378200Y2259000D01*
Y2304800D01*
X3444200D01*
Y2202200D01*
G37*
G36*
G01X10067600Y2309500D02*
G02X10009500Y2251400I28900J-87000D01*
G01X10010200Y2253500D01*
G02X10065500Y2308800I86300J-31000D01*
G01X10067600Y2309500D01*
G37*
G36*
G01X1304600D02*
G02Y2135500I28900J-87000D01*
G01X1302500Y2136200D01*
G02X1247200Y2191500I31000J86300D01*
G01X1246500Y2193600D01*
G02Y2251400I87000J28900D01*
G01X1247200Y2253500D01*
G02X1302500Y2308800I86300J-31000D01*
G01X1304600Y2309500D01*
G37*
G36*
G01X8660400Y2156400D02*
G02X8605100Y2126500I-35763J55D01*
G03X8591300Y2124000I-5581J-8529D01*
G01Y2301700D01*
G02X8660400Y2288600I33299J-13148D01*
G01Y2156400D01*
G37*
G36*
G01X5805800Y2146300D02*
G02X5626800Y2184000I-90816J12601D01*
G03X5626900Y2184400I-9843J2673D01*
G02X5628000Y2187900I88002J-25735D01*
G01X5628700Y2190000D01*
G02X5684000Y2245300I86300J-31000D01*
G01X5686100Y2246000D01*
G02X5805800Y2146300I28891J-87019D01*
G37*
G36*
G01X3114100Y2085900D02*
G02X3068300I-22900J-33600D01*
G01Y2103500D01*
G02X3114100I22900J-51200D01*
G01Y2085900D01*
G37*
G36*
G01X4351900Y1733300D02*
G02Y1822700I-33900J44700D01*
G01X5252000D01*
X5379000Y1949700D01*
X5490600D01*
G02Y1860300I33900J-44700D01*
G01X5416000D01*
X5289000Y1733300D01*
X4351900D01*
G37*
G36*
G01X8589300Y1742700D02*
G02X8499900I-44700J-33900D01*
G01Y1922800D01*
X8552000Y1870700D01*
G03X8569300Y1876200I7235J7202D01*
G02X8589300Y1910500I55319J-9275D01*
G01Y1742700D01*
G37*
G36*
G01X4156600Y1422200D02*
X4043000D01*
X3783800Y1681400D01*
G03X3767200Y1678200I-7222J-7190D01*
G02X3714200Y1628300I-84179J36312D01*
G01X3711900Y1627500D01*
G02X3596000Y1743400I-28900J87000D01*
G01X3596400Y1744700D01*
G02X3664100Y1804200I86569J-30235D01*
G03X3669200Y1821400I-2103J9980D01*
G01X3387700Y2102900D01*
X3367500D01*
X3135400Y2335000D01*
G02X3207000Y2334200I35796J-750D01*
G01Y2281800D01*
X3215300D01*
X3216600Y2284700D01*
G02X3218200Y2287600I34305J-17035D01*
G01Y2360600D01*
X3284200Y2294600D01*
Y2287600D01*
G02X3285800Y2284700I-32705J-19935D01*
G01X3287100Y2281800D01*
X3295400D01*
Y2283400D01*
X3367000Y2211800D01*
Y2202200D01*
G02X3365600Y2192500I-35762J211D01*
G03X3375400Y2179500I9814J-2796D01*
G01X3382400D01*
Y2185800D01*
X3381900Y2186900D01*
G02X3378200Y2200600I29301J15263D01*
G01X3721800Y1857000D01*
X3742000D01*
X3825500Y1773500D01*
Y1748100D01*
X4074800Y1498800D01*
X4080000D01*
X4156600Y1422200D01*
G37*
G36*
G01X10184000Y1394800D02*
X10113900D01*
G02X10078500Y1404400I40J70216D01*
G03X10063200Y1396100I-5122J-8809D01*
G02X10054400Y1526400I50809J68879D01*
G03X10070700Y1520200I10032J1848D01*
G02X10114000Y1535200I43363J-55178D01*
G01X10184000D01*
G02Y1394800I0J-70200D01*
G37*
G36*
G01X4718800Y1422200D02*
G02X4552200I-83300J38300D01*
G01X4215000D01*
X4138400Y1498800D01*
X4552200D01*
G02X4718800I83300J-38300D01*
G01X5381600D01*
X5629000Y1746100D01*
X5628000Y1749100D01*
G02X5686100Y1691000I87000J28900D01*
G01X5683100Y1692000D01*
X5413400Y1422200D01*
X4718800D01*
G37*
G36*
G01X8226100Y1293500D02*
G02X8168000Y1235400I28900J-87000D01*
G01X8169000Y1238400D01*
X8026200Y1381100D01*
Y1538000D01*
X8021100Y1543100D01*
Y1631900D01*
X8026200Y1637000D01*
Y2013200D01*
X8247200D01*
X8229800Y1995800D01*
Y1819000D01*
G02X8178800Y1723400I-38309J-40967D01*
G03X8166300Y1713400I-2289J-9951D01*
G01Y1628500D01*
G02X8115300Y1532900I-38309J-40967D01*
G03X8102800Y1522900I-2289J-9951D01*
G01Y1412900D01*
X8223100Y1292500D01*
X8226100Y1293500D01*
G37*
G36*
G01X9328800Y1135300D02*
G02X9213200I-57800J71200D01*
G03X9212500Y1135900I-6987J-7443D01*
G02X9219800Y1282600I58492J70621D01*
G02X9223800Y1285100I50594J-76501D01*
G01X9224600Y1285600D01*
G02X9329500Y1135900I46424J-79072D01*
G03X9328800Y1135300I6287J-8043D01*
G37*
G36*
G01X8724400Y977700D02*
X8598000D01*
X8738100Y1117800D01*
X8864500D01*
X8724400Y977700D01*
G37*
G36*
G01X6814300D02*
G02Y1054300I-83300J38300D01*
G01X6994900D01*
G03X7002100Y1071700I3J10188D01*
G01X6762900Y1311000D01*
X6759900Y1310000D01*
G02X6818000Y1368100I-28900J87000D01*
G01X6817000Y1365100D01*
X7064400Y1117800D01*
X7818000D01*
X7868800Y1067000D01*
X8166300D01*
Y939600D01*
X7815900D01*
X7777800Y977700D01*
X7415500D01*
X7410400Y972600D01*
X7321600D01*
X7316500Y977700D01*
X6814300D01*
G37*
G36*
G01X3879800Y829600D02*
G02X3803000Y797600I-69817J59402D01*
G02X3745800Y954500I6997J91427D01*
G02X3771700Y972300I64111J-65542D01*
G02X3880400Y830200I38319J-83313D01*
G03X3879800Y829600I6904J-7504D01*
G37*
G36*
G01X2959300Y972300D02*
G02X2882700I-38300J-83300D01*
G01Y1231400D01*
X2959300Y1308000D01*
Y972300D01*
G37*
G36*
G01X2250600Y606800D02*
X2067400D01*
Y790200D01*
X2114300D01*
Y878300D01*
X2151600Y841000D01*
X2203700D01*
Y790200D01*
X2250600D01*
Y606800D01*
G37*
G54D38*
X1968500Y1270000D03*
G54D33*
X4762500Y3111500D03*
X2413000Y698500D03*
X1651000D03*
X698500D03*
X9271000Y571500D03*
G54D26*
X571500Y3937000D03*
X10350500Y3810000D03*
X9334500D03*
X8318500Y3683000D03*
X6667500Y3492500D03*
X9334500Y3175000D03*
X6667500Y2984500D03*
Y2603500D03*
X9334500Y2413000D03*
X571500Y2286000D03*
X2349500Y2222500D03*
X7239000Y2159000D03*
X6731000D03*
Y1778000D03*
X2921000Y1714500D03*
X825500Y1587500D03*
X5715000Y1397000D03*
Y1016000D03*
X8255000Y571500D03*
G54D35*
X571500Y3048000D03*
Y2794000D03*
Y2540000D03*
G54D34*
X3331200Y3117800D03*
G54D42*
X10149000Y440000D03*
X9779000D03*
G54D37*
Y1465000D03*
G54D36*
X3746500Y2349500D03*
G54D39*
X4064000Y889000D03*
X3175000D03*
G54D28*
X8636000Y3683000D03*
G54D40*
X1397000Y698500D03*
G54D41*
X952500D03*
G54D27*
X1587500Y3937000D03*
X571500Y3302000D03*
G54D32*
X8544600Y3072100D03*
G54D31*
X7239000Y3175000D03*
G54D30*
X10096500Y3238500D03*
Y1968500D03*
X825500Y1333500D03*
X4635500Y1206500D03*
G54D29*
X4254500Y3492500D03*
X7620000Y2730500D03*
%LPD*%
G75*
G54D10*
X952500Y698500D03*
D03*
X825500Y1333500D03*
D03*
X1397000Y698500D03*
D03*
X2159000D03*
D03*
X3175000Y889000D03*
D03*
X4064000D03*
D03*
X4635500Y1206500D03*
D03*
X4762500Y2857500D03*
D03*
X8636000Y3683000D03*
D03*
X10096500Y1968500D03*
D03*
Y3238500D03*
D03*
G54D11*
X698500Y698500D03*
D03*
X825500Y1587500D03*
D03*
X1651000Y698500D03*
D03*
X1333500Y2603500D03*
D03*
Y2222500D03*
D03*
Y3238500D03*
D03*
Y2921000D03*
D03*
X2413000Y698500D03*
D03*
X2349500Y2603500D03*
D03*
Y2222500D03*
D03*
Y3238500D03*
D03*
Y2921000D03*
D03*
X2921000Y889000D03*
D03*
Y1714500D03*
D03*
X3810000Y889000D03*
D03*
X3683000Y1714500D03*
D03*
X4635500Y1460500D03*
D03*
X4762500Y3111500D03*
D03*
X4254500Y3746500D03*
D03*
X5715000Y1016000D03*
D03*
Y1397000D03*
D03*
Y1778000D03*
D03*
Y2159000D03*
D03*
X5651500Y2603500D03*
D03*
Y2984500D03*
D03*
Y3492500D03*
D03*
X5270500Y3746500D03*
D03*
X6731000Y1016000D03*
D03*
Y1397000D03*
D03*
Y1778000D03*
D03*
Y2159000D03*
D03*
X6667500Y2603500D03*
D03*
Y2984500D03*
D03*
Y3492500D03*
D03*
X8255000Y571500D03*
D03*
Y1206500D03*
D03*
X8318500Y3683000D03*
D03*
X9271000Y571500D03*
D03*
Y1206500D03*
D03*
X9334500Y2413000D03*
D03*
Y3175000D03*
D03*
Y3810000D03*
D03*
X10096500Y2222500D03*
D03*
Y2984500D03*
D03*
X10350500Y3810000D03*
D03*
G54D20*
X10149000Y952500D03*
Y887500D03*
Y822500D03*
Y1082500D03*
Y1017500D03*
G54D12*
X508000Y1651000D03*
D03*
D03*
D03*
X2349500Y508000D03*
D03*
X1968500Y1270000D03*
D03*
X3171200Y1400800D03*
D03*
X3396600Y2397600D03*
D03*
X3302000Y2540000D03*
D03*
X2851200Y2470200D03*
D03*
X3111500Y2667000D03*
D03*
X3091200Y2052300D03*
D03*
X3429000Y2857500D03*
D03*
X2984500D03*
D03*
X3011200Y3003500D03*
D03*
D03*
D03*
X3411200D03*
D03*
X3111500Y3429000D03*
D03*
X3411200Y3446800D03*
D03*
X3302000Y3556000D03*
D03*
X3746500Y2349500D03*
D03*
X4116100Y2973100D03*
D03*
X4127500Y3492500D03*
D03*
X4318000Y1778000D03*
D03*
X4508500Y3111500D03*
D03*
D03*
D03*
X4318000Y3302000D03*
D03*
X4953000Y3556000D03*
D03*
X5524500Y1905000D03*
D03*
X8001000Y3302000D03*
D03*
X8699500Y1778000D03*
D03*
X8191500D03*
D03*
X8544600Y1708800D03*
D03*
X8624600Y1866900D03*
D03*
X8544600Y1708800D03*
D03*
X8128000Y1587500D03*
D03*
X8382000Y2667000D03*
D03*
X8224500Y2824500D03*
D03*
X8509000Y2857500D03*
D03*
X8763000Y3302000D03*
D03*
X8802400Y3072100D03*
D03*
X8948400Y3233400D03*
D03*
G54D21*
X10149000Y722500D03*
Y1182500D03*
G54D22*
G01X1111200Y698500D02*
G02I-285700J0D01*
G01Y1460500D02*
G02I-285700J0D01*
G01X698500Y2146300D02*
X444500D01*
G01X698500Y3441700D02*
Y2146300D01*
G01X444500Y2540000D02*
Y2794000D01*
G01Y2286000D02*
Y2540000D01*
G01Y2146300D02*
Y2286000D01*
G01Y3302000D02*
Y3441700D01*
G01Y3048000D02*
Y3302000D01*
G01Y2794000D02*
Y3048000D01*
G01Y3441700D02*
X698500D01*
G01X431800Y3810000D02*
Y4064000D01*
G01X1727200Y3810000D02*
X431800D01*
G01X1079500Y4064000D02*
X1333500D01*
G01X825500D02*
X1079500D01*
G01X571500D02*
X825500D01*
G01X431800D02*
X571500D01*
G01X1809700Y698500D02*
G02I-285700J0D01*
G01X1524000Y2603500D02*
X1460500D01*
G01X2159000Y2476500D02*
X1524000D01*
G01D02*
Y2603500D01*
G01D02*
Y2730500D01*
G01Y2222500D02*
X1460500D01*
G01X2159000Y2095500D02*
X1524000D01*
G01D02*
Y2222500D01*
G01D02*
Y2349500D01*
G01D02*
X2159000D01*
G01X1524000Y3238500D02*
X1460500D01*
G01X2159000Y3111500D02*
X1524000D01*
G01D02*
Y3238500D01*
G01D02*
Y3365500D01*
G01D02*
X2159000D01*
G01X1524000Y2921000D02*
X1460500D01*
G01X2159000Y2794000D02*
X1524000D01*
G01D02*
Y2921000D01*
G01D02*
Y3048000D01*
G01D02*
X2159000D01*
G01X1524000Y2730500D02*
X2159000D01*
G01X1727200Y4064000D02*
Y3810000D01*
G01X1587500Y4064000D02*
X1727200D01*
G01X1333500D02*
X1587500D01*
G01X2571700Y698500D02*
G02I-285700J0D01*
G01X2159000Y2603500D02*
X2222500D01*
G01X2159000Y2730500D02*
Y2603500D01*
G01D02*
Y2476500D01*
G01Y2222500D02*
X2222500D01*
G01X2159000Y2349500D02*
Y2222500D01*
G01D02*
Y2095500D01*
G01Y3238500D02*
X2222500D01*
G01X2159000Y3365500D02*
Y3238500D01*
G01D02*
Y3111500D01*
G01Y2921000D02*
X2222500D01*
G01X2159000Y3048000D02*
Y2921000D01*
G01D02*
Y2794000D01*
G01X3333700Y889000D02*
G02I-285700J0D01*
G01X3873500Y1460500D02*
X2730500D01*
G01D02*
Y1968500D01*
G01D02*
X3873500D01*
G01X4222700Y889000D02*
G02I-285700J0D01*
G01X3873500Y1968500D02*
Y1460500D01*
G01X4921200Y1333500D02*
G02I-285700J0D01*
G01X5048200Y2984500D02*
G02I-285700J0D01*
G01X4445000Y3746500D02*
X4381500D01*
G01X4445000Y3619500D02*
Y3746500D01*
G01D02*
Y3873500D01*
G01D02*
X5080000D01*
G01Y3619500D02*
X4445000D01*
G01X5080000Y3746500D02*
X5143500D01*
G01X5080000Y3873500D02*
Y3746500D01*
G01D02*
Y3619500D01*
G01X5905500Y1016000D02*
X5842000D01*
G01X6540500Y889000D02*
X5905500D01*
G01D02*
Y1016000D01*
G01D02*
Y1143000D01*
G01D02*
X6540500D01*
G01X5905500Y1397000D02*
X5842000D01*
G01X6540500Y1270000D02*
X5905500D01*
G01D02*
Y1397000D01*
G01D02*
Y1524000D01*
G01D02*
X6540500D01*
G01X5905500Y1778000D02*
X5842000D01*
G01X5905500Y1651000D02*
Y1778000D01*
G01D02*
Y1905000D01*
G01X6540500Y1651000D02*
X5905500D01*
G01Y1905000D02*
X6540500D01*
G01X5905500Y2159000D02*
X5842000D01*
G01X5905500Y2032000D02*
Y2159000D01*
G01D02*
Y2286000D01*
G01D02*
X6540500D01*
G01Y2032000D02*
X5905500D01*
G01X5842000Y2603500D02*
X5778500D01*
G01X5842000Y2476500D02*
Y2603500D01*
G01D02*
Y2730500D01*
G01X6477000Y2476500D02*
X5842000D01*
G01Y2730500D02*
X6477000D01*
G01X5842000Y2984500D02*
X5778500D01*
G01X5842000Y2857500D02*
Y2984500D01*
G01D02*
Y3111500D01*
G01D02*
X6477000D01*
G01Y2857500D02*
X5842000D01*
G01X6477000Y3365500D02*
X5842000D01*
G01D02*
Y3492500D01*
G01D02*
X5778500D01*
G01X5842000D02*
Y3619500D01*
G01D02*
X6477000D01*
G01X6540500Y1016000D02*
X6604000D01*
G01X6540500Y1143000D02*
Y1016000D01*
G01D02*
Y889000D01*
G01Y1397000D02*
X6604000D01*
G01X6540500Y1524000D02*
Y1397000D01*
G01D02*
Y1270000D01*
G01Y1778000D02*
X6604000D01*
G01X6540500Y1905000D02*
Y1778000D01*
G01D02*
Y1651000D01*
G01X7366000Y2019300D02*
X7112000D01*
G01Y2413000D02*
Y2667000D01*
G01Y2159000D02*
Y2413000D01*
G01Y2019300D02*
Y2159000D01*
G01X6540500D02*
X6604000D01*
G01X6540500Y2286000D02*
Y2159000D01*
G01D02*
Y2032000D01*
G01X6477000Y2603500D02*
X6540500D01*
G01X6477000Y2730500D02*
Y2603500D01*
G01D02*
Y2476500D01*
G01X7112000Y3314700D02*
X7366000D01*
G01X7112000Y3175000D02*
Y3314700D01*
G01Y2921000D02*
Y3175000D01*
G01Y2667000D02*
Y2921000D01*
G01X6477000Y2984500D02*
X6540500D01*
G01X6477000Y3111500D02*
Y2984500D01*
G01D02*
Y2857500D01*
G01Y3492500D02*
Y3365500D01*
G01Y3492500D02*
X6540500D01*
G01X6477000Y3619500D02*
Y3492500D01*
G01X7366000Y3314700D02*
Y2019300D01*
G01X9080500Y1079500D02*
X8445500D01*
G01D02*
Y1206500D01*
G01Y571500D02*
X8382000D01*
G01X9080500Y444500D02*
X8445500D01*
G01D02*
Y571500D01*
G01D02*
Y698500D01*
G01D02*
X9080500D01*
G01X8445500Y1206500D02*
X8382000D01*
G01X8445500D02*
Y1333500D01*
G01D02*
X9080500D01*
G01X8794700Y3683000D02*
G02X8477300Y3365500I-317400J-100D01*
G02Y4000500I0J317500D01*
G02X8794700Y3683000I0J-317400D01*
G01X9080500Y1206500D02*
Y1079500D01*
G01Y571500D02*
X9144000D01*
G01X9080500Y698500D02*
Y571500D01*
G01D02*
Y444500D01*
G01Y1206500D02*
X9144000D01*
G01X9080500Y1333500D02*
Y1206500D01*
G01Y2222500D02*
Y3365500D01*
G01X9588500Y2222500D02*
X9080500D01*
G01Y3365500D02*
X9588500D01*
G01X9525000Y3810000D02*
X9461500D01*
G01X10382200Y2095500D02*
G02I-285700J0D01*
G01X9588500Y3365500D02*
Y2222500D01*
G01X10382200Y3111500D02*
G02I-285700J0D01*
G01X10160000Y3810000D02*
X10223500D01*
G01X9525000Y3683000D02*
Y3810000D01*
G01D02*
Y3937000D01*
G01D02*
X10160000D01*
G01D02*
Y3810000D01*
G01D02*
Y3683000D01*
G01D02*
X9525000D01*
G54D13*
X571500Y2286000D03*
D03*
Y2540000D03*
D03*
Y2794000D03*
D03*
Y3048000D03*
D03*
Y3937000D03*
D03*
X825500D03*
D03*
X1079500D03*
D03*
X1333500D03*
D03*
X7239000Y2159000D03*
D03*
Y2413000D03*
D03*
Y2667000D03*
D03*
Y2921000D03*
D03*
G54D23*
G01X825500Y1587500D02*
Y1714500D01*
X1333500Y2222500D01*
G01X571500Y2540000D02*
X1016000D01*
X1333500Y2222500D01*
G01X571500Y2794000D02*
X1143000D01*
X1333500Y2603500D01*
G01X571500Y3048000D02*
X1206500D01*
X1333500Y2921000D01*
G01X571500Y3302000D02*
X1178400D01*
X1241900Y3238500D01*
X1333500D01*
G01X4127500Y3492500D02*
X3937000Y3683000D01*
X1079500D01*
X825500Y3937000D01*
G01X5651500Y2603500D02*
X5778500Y2730500D01*
Y3111500D01*
X5461000Y3429000D01*
Y3873500D01*
X5397500Y3937000D01*
X1798900D01*
X1682000Y3820100D01*
X1493000D01*
X1470600Y3842500D01*
Y3985400D01*
X1402100Y4053900D01*
X1196400D01*
X1079500Y3937000D01*
G01X1333500D02*
Y3810000D01*
X1374200Y3769300D01*
X1703100D01*
X1820000Y3886200D01*
X4749800D01*
X5651500Y2984500D01*
G01Y3492500D02*
Y3937000D01*
X5524500Y4064000D01*
X1714500D01*
X1587500Y3937000D01*
G01X1968500Y1270000D02*
Y969900D01*
X2135700Y802700D01*
X2240800D01*
X2263200Y780300D01*
Y616700D01*
X2220800Y574300D01*
Y488900D01*
X2259000Y450700D01*
X2309700D01*
X2321000Y439400D01*
X2378000D01*
X2389300Y450700D01*
X7689700D01*
X8128000Y889000D01*
Y1587500D01*
G01X2706400Y2413000D02*
Y2134900D01*
X1968500Y1397000D01*
Y1270000D01*
G01X2349500Y2222500D02*
Y2410400D01*
X2592100Y2653000D01*
X2706400D01*
G01X2349500Y2603500D02*
X2479000Y2733000D01*
X2706400D01*
G01X2599500Y2973100D02*
X2706400D01*
G01X2349500Y2921000D02*
X2457500Y2813000D01*
X2706400D01*
G01X2349500Y3238500D02*
X2414300Y3173700D01*
Y3070900D01*
X2592100Y2893100D01*
X2706400D01*
G01X2921000Y1714500D02*
Y889000D01*
G01Y1714500D02*
Y2032000D01*
X3011200Y2122200D01*
Y2268200D01*
G01X3291600Y2393500D02*
X3331200Y2353900D01*
Y2315200D01*
G01X3289900Y2395200D02*
X3291600Y2393500D01*
G01X3214200D02*
X3212500Y2395200D01*
G01X3291600Y2393500D02*
X3214200D01*
G01X3348800Y2437200D02*
X3331200Y2454800D01*
G01X3357000Y2437200D02*
X3348800D01*
G01X3396600Y2397600D02*
X3357000Y2437200D01*
G01X2851200Y2470200D02*
X3054400D01*
X3705900Y1818700D01*
X3726100D01*
X3787200Y1757600D01*
Y1737400D01*
X4254600Y1270000D01*
X4513000D01*
X4553700Y1310700D01*
X5166300D01*
X5842000Y635000D01*
X7048500D01*
X8191500Y1778000D01*
G01X3302000Y2484000D02*
X3331200Y2454800D01*
G01X3302000Y2540000D02*
Y2484000D01*
G01X3171200Y1970000D02*
Y2268200D01*
G01X4635500Y1460500D02*
X4058900D01*
X3787200Y1732200D01*
Y1757600D01*
X3403600Y2141200D01*
X3305900D01*
X3251200Y2195900D01*
Y2268200D01*
G01X3091200D02*
Y2052300D01*
G01X2851200Y2268200D02*
Y2470200D01*
G01X3091200Y2052300D02*
X3345200D01*
X3683000Y1714500D01*
G01X2706400Y2973100D02*
Y3014000D01*
G01X3411200Y3003500D02*
X3011200D01*
G01X3810000Y889000D02*
Y1587500D01*
X3683000Y1714500D01*
G01X5715000Y1016000D02*
X4699000Y2032000D01*
X4191000D01*
X4116100Y2106900D01*
Y2973100D01*
G01X3623300Y2343700D02*
X3480600D01*
G01X3429000Y2857500D02*
Y2921000D01*
X3683000Y3175000D01*
X4028600D01*
X5715000Y1488600D01*
Y1397000D01*
G01X3429000Y2857500D02*
X3448200D01*
X3483800Y2893100D01*
X3556000D01*
G01Y2973100D02*
X4116100D01*
G01X4254500Y3746500D02*
Y3335600D01*
X4249400Y3330500D01*
Y3273500D01*
X4254500Y3268400D01*
Y2984500D01*
X4178300Y2908300D01*
X4148400D01*
X4144600Y2904500D01*
X4087600D01*
X4083800Y2908300D01*
X3685500D01*
X3670300Y2893100D01*
X3556000D01*
G01X4762500Y2857500D02*
X4489500D01*
X4445000Y2813000D01*
X3556000D01*
G01X4953000Y3556000D02*
X5331500Y3177500D01*
Y2809200D01*
X5255300Y2733000D01*
X3556000D01*
G01X4127500Y3492500D02*
X4919400D01*
X4924500Y3487400D01*
X4981500D01*
X4986600Y3492500D01*
X5143500D01*
G01X4635500Y1460500D02*
X5397500D01*
X5715000Y1778000D01*
G01X5143500Y3492500D02*
X5270500Y3365500D01*
Y2603500D01*
X5715000Y2159000D01*
G01X8509000Y2857500D02*
X8387100Y2735600D01*
X8353500D01*
X8348400Y2730500D01*
X7340800D01*
X7287400Y2783900D01*
X7210800D01*
X7137200Y2857500D01*
X5905500D01*
X5651500Y2603500D01*
G01Y2984500D02*
X5969000D01*
X6350000Y3365500D01*
X7429500D01*
X7722900Y3072100D01*
X8802400D01*
G01X7239000Y3175000D02*
X5969000D01*
X5651500Y3492500D01*
G01X4953000Y3556000D02*
X5080000D01*
X5270500Y3746500D01*
G01X8763000Y3302000D02*
X8699500Y3365500D01*
X8064500D01*
X7302500Y4127500D01*
X5969000D01*
X5334000Y3492500D01*
X5143500D01*
G01X6731000Y1397000D02*
X7048500Y1079500D01*
X7802100D01*
X7852900Y1028700D01*
X8296400D01*
X8347200Y1079500D01*
X9961100D01*
X10023100Y1017500D01*
X10149000D01*
G01Y952500D02*
X10016200D01*
X9952700Y1016000D01*
X8355600D01*
X8317500Y977900D01*
X7831800D01*
X7793700Y1016000D01*
X7399600D01*
X7394500Y1010900D01*
X7337500D01*
X7332400Y1016000D01*
X6731000D01*
G01X6667500Y2603500D02*
X7071300D01*
X7134800Y2667000D01*
X7239000D01*
G01X6731000Y2159000D02*
X6985000D01*
X7239000Y2413000D01*
G01X6667500Y2984500D02*
X7071300D01*
X7134800Y2921000D01*
X7239000D01*
G01X6667500Y3492500D02*
X7810500D01*
X8001000Y3302000D01*
G01X7239000Y3175000D02*
X7620000Y2794000D01*
Y2286000D01*
X7683500Y2222500D01*
X8064500D01*
G01X8128000Y1587500D02*
Y1744400D01*
X8122900Y1749500D01*
Y1806500D01*
X8126100Y1809700D01*
Y1873100D01*
X8128000Y1875000D01*
Y2091700D01*
X8144500Y2108200D01*
Y2222500D01*
G01X8191500Y1778000D02*
Y2011700D01*
X8224500Y2044700D01*
Y2222500D01*
G01X8064500D02*
Y1621100D01*
X8059400Y1616000D01*
Y1559000D01*
X8064500Y1553900D01*
Y1397000D01*
X8255000Y1206500D01*
G01X8624600Y2222500D02*
X8665500D01*
G01X8624600D02*
Y2329400D01*
G01X7995200Y2155200D02*
Y2297900D01*
G01X8624600Y3072100D02*
X8802400D01*
G01X8544600D02*
Y2893100D01*
X8509000Y2857500D01*
G01X8001000Y3302000D02*
X8069600Y3233400D01*
X8948400D01*
G01X8763000Y3302000D02*
X8580100D01*
X8464500Y3186400D01*
Y3072100D01*
G01X8318500Y3683000D02*
Y3423900D01*
X8144500Y3249900D01*
Y3072100D01*
G01X9334500Y3810000D02*
X8763000D01*
X8636000Y3683000D01*
G01X9271000Y571500D02*
X9355100D01*
G01X9186900D02*
X9271000D01*
G01D02*
Y655600D01*
G01Y487400D02*
Y571500D01*
G01D02*
X9587000Y887500D01*
G01X8769300Y2447300D02*
X8883600D01*
X9334500Y2898200D01*
Y3175000D01*
G01Y2413000D02*
X9906000D01*
X10096500Y2222500D01*
G01X9334500Y2413000D02*
X9170600D01*
X9124900Y2367300D01*
X8769300D01*
G01X8948400Y3233400D02*
Y3002300D01*
X8907700Y2961600D01*
X8869600D01*
X8835300Y2927300D01*
X8769300D01*
G01X9334500Y3175000D02*
X9906000D01*
X10096500Y2984500D01*
G01X9587000Y887500D02*
X10149000D01*
G01X9937700Y1650000D02*
Y1174800D01*
X10030000Y1082500D01*
X10149000D01*
G54D14*
X571500Y3302000D03*
D03*
X1587500Y3937000D03*
D03*
X7239000Y3175000D03*
D03*
G54D24*
G01X698500Y698500D02*
X782600D01*
G01X614400D02*
X698500D01*
G01D02*
Y782600D01*
G01Y614400D02*
Y698500D01*
G01X1460500Y508000D02*
X889000D01*
G01D02*
X698500Y698500D01*
G01X508000Y1651000D02*
Y889000D01*
G01D02*
X698500Y698500D01*
G01X825500Y1333500D02*
X909600D01*
G01X741400D02*
X825500D01*
G01D02*
Y1417600D01*
G01Y1249400D02*
Y1333500D01*
G01X508000Y1651000D02*
X571500Y1714500D01*
G01D02*
Y2286000D01*
G01D02*
X668300D01*
G01X474700D02*
X571500D01*
G01D02*
Y2382800D01*
G01X381000Y3746500D02*
Y2400300D01*
X417000Y2364300D01*
X493200D01*
G01D02*
X571500Y2286000D01*
G01Y3937000D02*
X668300D01*
G01X474700D02*
X571500D01*
G01D02*
Y4033800D01*
G01Y3840200D02*
Y3937000D01*
G01D02*
X381000Y3746500D01*
G01X1651000Y698500D02*
X1735100D01*
G01X1566900D02*
X1651000D01*
G01D02*
Y782600D01*
G01Y614400D02*
Y698500D01*
G01D02*
X1460500Y508000D01*
G01X2349500D02*
X1841500D01*
G01D02*
X1651000Y698500D01*
G01X2413000D02*
X2497100D01*
G01X2328900D02*
X2413000D01*
G01D02*
Y782600D01*
G01Y614400D02*
Y698500D01*
G01X2349500Y508000D02*
X2413000Y571500D01*
Y698500D01*
G01D02*
X3071200Y1356700D01*
X3127100D01*
X3171200Y1400800D01*
G01X3175000Y889000D02*
X3259100D01*
G01X3090900D02*
X3175000D01*
G01D02*
Y973100D01*
G01Y804900D02*
Y889000D01*
G01X3171200Y1400800D02*
Y1143000D01*
G01Y1400800D02*
Y1970000D01*
G01X4064000Y889000D02*
X4148100D01*
G01X3979900D02*
X4064000D01*
G01D02*
Y973100D01*
G01Y804900D02*
Y889000D01*
G01X5524500Y1905000D02*
X5397500D01*
X5270500Y1778000D01*
X4318000D01*
G01X4635500Y1206500D02*
X4719600D01*
G01X4551400D02*
X4635500D01*
G01D02*
Y1290600D01*
G01Y1122400D02*
Y1206500D01*
G01X4762500Y3111500D02*
X4846600D01*
G01X4678400D02*
X4762500D01*
G01D02*
Y3195600D01*
G01Y3027400D02*
Y3111500D01*
G01X7142200Y2159000D02*
X7239000D01*
G01D02*
X7335800D01*
G01X7239000D02*
Y2255800D01*
G01Y2062200D02*
Y2159000D01*
G01X9937700Y1682700D02*
Y1650000D01*
G01X10096500Y1968500D02*
X9969500Y1841500D01*
G01D02*
Y1714500D01*
X9937700Y1682700D01*
G01X10096500Y1968500D02*
X10180600D01*
G01X10012400D02*
X10096500D01*
G01D02*
Y2052600D01*
G01Y1884400D02*
Y1968500D01*
G01D02*
X10287000Y2159000D01*
Y3048000D01*
X10096500Y3238500D01*
G01D02*
X10180600D01*
G01X10012400D02*
X10096500D01*
G01D02*
Y3322600D01*
G01Y3154400D02*
Y3238500D01*
G54D15*
X2706400Y2413000D03*
Y2493000D03*
Y2573000D03*
Y2653000D03*
Y2813000D03*
Y2893100D03*
Y2973100D03*
X3556000Y2573000D03*
Y2493000D03*
Y2973100D03*
Y2893100D03*
Y2813000D03*
Y2733000D03*
Y2653000D03*
X7919700Y2607300D03*
Y2447300D03*
Y2367300D03*
Y2927300D03*
Y2847300D03*
Y2767300D03*
Y2687300D03*
X8769300Y2367300D03*
Y2527300D03*
Y2607300D03*
Y2687300D03*
Y2767300D03*
Y2847300D03*
Y2927300D03*
G54D25*
G01X952500Y698500D02*
X1397000D01*
G01X508000Y1651000D02*
X825500Y1333500D01*
G01X2159000Y698500D02*
X1968500Y889000D01*
X1587500D01*
X1397000Y698500D01*
G01X2159000D02*
Y1381700D01*
X2931200Y2153900D01*
Y2268200D01*
G01X3175000Y889000D02*
X3365500Y698500D01*
X3873500D01*
X4064000Y889000D01*
G01X3171200Y1143000D02*
X3175000Y1139200D01*
Y889000D01*
G01X3390900Y2397600D02*
X3396600D01*
G01X3365500Y2362100D02*
Y2372200D01*
X3390900Y2397600D01*
G01X3331200Y2315200D02*
X3359200Y2343200D01*
Y2355800D01*
X3365500Y2362100D01*
G01X3331200Y2268200D02*
Y2315200D01*
G01X3746500Y2349500D02*
X3619500Y2476500D01*
X3344600D01*
X3333100Y2465000D01*
X3270900D01*
X3259400Y2476500D01*
X3187400D01*
X3111500Y2552400D01*
Y2667000D01*
G01X3556000Y2573000D02*
X3353300D01*
X3326700Y2599600D01*
X3277300D01*
X3250700Y2573000D01*
X3037900D01*
X2931200Y2466300D01*
Y2268200D01*
G01X3302000Y2540000D02*
Y2823900D01*
X3296900Y2829000D01*
Y2886000D01*
X3302000Y2891100D01*
Y3556000D01*
G01X3212500Y2395200D02*
X3171200Y2353900D01*
Y2268200D01*
G01X2811200Y2934300D02*
X2772400Y2973100D01*
X2706400D01*
G01X2984500Y2857500D02*
X2921000D01*
X2844200Y2934300D01*
X2811200D01*
G01X2984500Y2857500D02*
Y2976800D01*
X3011200Y3003500D01*
G01Y3117800D02*
Y3003500D01*
G01X3111500Y3429000D02*
Y3315900D01*
X3091200Y3295600D01*
Y3117800D01*
G01X3556000Y2653000D02*
X3125500D01*
X3111500Y2667000D01*
G01X3011200Y3003500D02*
X3030200Y2984500D01*
G01X3392200D02*
X3411200Y3003500D01*
G01X3111500Y2667000D02*
Y3429000D01*
G01X3411200Y3446800D02*
X3302000Y3556000D01*
G01X4064000Y889000D02*
X4318000D01*
X4635500Y1206500D01*
G01X4318000Y1778000D02*
X3746500Y2349500D01*
G01X3556000Y2573000D02*
Y2653000D01*
G01X3411200Y3117800D02*
Y3003500D01*
G01Y3446800D02*
Y3117800D01*
G01Y3446800D02*
X3556000Y3302000D01*
X4318000D01*
G01X8313500Y1910000D02*
X8255600D01*
X8249000Y1916600D01*
X8134000D01*
X8127400Y1910000D01*
X8006000D01*
X7769800Y1673800D01*
X7369700D01*
X7201900Y1841600D01*
X6823800D01*
X6776800Y1888600D01*
X6710400D01*
X6566900Y2032100D01*
X5694600D01*
X5678300Y2048400D01*
X5669200D01*
X5604400Y2113200D01*
Y2122300D01*
X4889500Y2837200D01*
Y2984500D01*
X4762500Y3111500D01*
G01D02*
X4508500D01*
G01X4318000Y3302000D02*
X4508500Y3111500D01*
G01X5524500Y1905000D02*
X5652800D01*
X5669200Y1888600D01*
X5678300D01*
X5758200Y1968500D01*
X6540500D01*
X6731000Y1778000D01*
G01X8544600Y1708800D02*
X8411800Y1841600D01*
X8234000D01*
X8222600Y1853000D01*
X8160400D01*
X7753700Y1446300D01*
X7507200D01*
X7175500Y1778000D01*
X6731000D01*
G01X7239000Y2159000D02*
X7429500Y1968500D01*
X8255000D01*
X8313500Y1910000D01*
G01X9271000Y1206500D02*
X8890000D01*
X8255000Y571500D01*
G01X8313500Y1910000D02*
X8318300Y1905200D01*
X8454300D01*
X8581500Y1778000D01*
X8699500D01*
G01D02*
X8763000Y1714500D01*
X9639600D01*
X9906000Y1980900D01*
Y2095500D01*
X10191800D01*
X10287000Y2000300D01*
Y1905000D01*
G01X8544600Y1348800D02*
Y1708800D01*
G01D02*
X8607500Y1645900D01*
X8664500D01*
X8704600Y1686000D01*
X8903300D01*
X9271000Y1318300D01*
Y1206500D01*
G01X8636000Y1855500D02*
Y1841500D01*
X8699500Y1778000D01*
G01X8382000Y2667000D02*
X8636000Y2413000D01*
Y1855500D01*
G01D02*
X8624600Y1866900D01*
G01D02*
Y2222500D01*
G01X8544600D02*
Y1708800D01*
G01Y2222500D02*
Y2750000D01*
X8505700Y2788900D01*
X8480500D01*
X8440400Y2829000D01*
Y2854200D01*
X8384500Y2910100D01*
Y3072100D01*
G01X8224500Y2824500D02*
X8298100D01*
X8329800Y2792800D01*
X8363400D01*
X8434000Y2863400D01*
Y2888600D01*
X8477900Y2932500D01*
X8540100D01*
X8584000Y2888600D01*
Y2826400D01*
X8540100Y2782500D01*
Y2762700D01*
X8444400Y2667000D01*
X8382000D01*
G01X8224500Y3072100D02*
Y2824500D01*
G01X8384500Y3072100D02*
Y3186400D01*
X8627100Y3429000D01*
X9969500D01*
X10350500Y3810000D01*
G01X10287000Y1905000D02*
X10009500Y1627500D01*
Y1421700D01*
X10018500Y1412700D01*
Y1109000D01*
X10044500Y1083000D01*
X10148500D01*
X10149000Y1082500D01*
G54D16*
X2706400Y2733000D03*
X3556000Y2413000D03*
X7919700Y2527300D03*
X8769300Y2447300D03*
G54D17*
X3331200Y2268200D03*
X3171200D03*
X3091200D03*
X3011200D03*
X2931200D03*
X2851200D03*
Y3117800D03*
X2931200D03*
X3011200D03*
X3091200D03*
X3171200D03*
X3251200D03*
X3411200Y2268200D03*
Y3117800D03*
X8144500Y2222500D03*
X8224500D03*
X8304500D03*
X8384500D03*
X8464500D03*
X8544600D03*
X8624600D03*
Y3072100D03*
X8544600D03*
X8464500D03*
X8304500D03*
X8224500D03*
X8144500D03*
X8064500D03*
G54D18*
X3251200Y2268200D03*
X3331200Y3117800D03*
X8064500Y2222500D03*
X8384500Y3072100D03*
G54D19*
X10149000Y440000D03*
D03*
X9779000D03*
D03*
Y1465000D03*
D03*
X10149000D03*
D03*
M02*
