G04 ================== begin FILE IDENTIFICATION RECORD ==================*
G04 Layout Name:  C:/USERS/USER/DESKTOP/WORK/AVRUSB500/ALLEGRO/AVRUSB500.brd*
G04 Film Name:    DrillDraw*
G04 File Format:  Gerber RS274X*
G04 File Origin:  Cadence Allegro 16.6-S034*
G04 Origin Date:  Fri Jul 19 12:48:53 2019*
G04 *
G04 Layer:  MANUFACTURING/NCLEGEND-1-2*
G04 Layer:  BOARD GEOMETRY/OUTLINE*
G04 *
G04 Offset:    (0.000 0.000)*
G04 Mirror:    No*
G04 Mode:      Positive*
G04 Rotation:  0*
G04 FullContactRelief:  No*
G04 UndefLineWidth:     0.000*
G04 ================== end FILE IDENTIFICATION RECORD ====================*
%FSLAX55Y55*MOMM*%
%IR0*IPPOS*OFA0.00000B0.00000*MIA0B0*SFA1.00000B1.00000*%
%AMMACRO10*
1,1,0.0,-.45,.25*
20,1,0.0,-.45,.25,.45,.25,0.0*
1,1,0.0,.45,.25*
20,1,0.0,.45,.25,.493412,.246202,0.0*
1,1,0.0,.493412,.246202*
20,1,0.0,.493412,.246202,.535505,.234923,0.0*
1,1,0.0,.535505,.234923*
20,1,0.0,.535505,.234923,.575,.216506,0.0*
1,1,0.0,.575,.216506*
20,1,0.0,.575,.216506,.610697,.191511,0.0*
1,1,0.0,.610697,.191511*
20,1,0.0,.610697,.191511,.641511,.160697,0.0*
1,1,0.0,.641511,.160697*
20,1,0.0,.641511,.160697,.666506,.125,0.0*
1,1,0.0,.666506,.125*
20,1,0.0,.666506,.125,.684923,.085505,0.0*
1,1,0.0,.684923,.085505*
20,1,0.0,.684923,.085505,.696202,.043412,0.0*
1,1,0.0,.696202,.043412*
20,1,0.0,.696202,.043412,.7,0.0,0.0*
1,1,0.0,.7,0.0*
20,1,0.0,.7,0.0,.696202,-.043412,0.0*
1,1,0.0,.696202,-.043412*
20,1,0.0,.696202,-.043412,.684923,-.085505,0.0*
1,1,0.0,.684923,-.085505*
20,1,0.0,.684923,-.085505,.666506,-.125,0.0*
1,1,0.0,.666506,-.125*
20,1,0.0,.666506,-.125,.641511,-.160697,0.0*
1,1,0.0,.641511,-.160697*
20,1,0.0,.641511,-.160697,.610697,-.191511,0.0*
1,1,0.0,.610697,-.191511*
20,1,0.0,.610697,-.191511,.575,-.216506,0.0*
1,1,0.0,.575,-.216506*
20,1,0.0,.575,-.216506,.535505,-.234923,0.0*
1,1,0.0,.535505,-.234923*
20,1,0.0,.535505,-.234923,.493412,-.246202,0.0*
1,1,0.0,.493412,-.246202*
20,1,0.0,.493412,-.246202,.45,-.25,0.0*
1,1,0.0,.45,-.25*
20,1,0.0,.45,-.25,-.45,-.25,0.0*
1,1,0.0,-.45,-.25*
20,1,0.0,-.45,-.25,-.493412,-.246202,0.0*
1,1,0.0,-.493412,-.246202*
20,1,0.0,-.493412,-.246202,-.535505,-.234923,0.0*
1,1,0.0,-.535505,-.234923*
20,1,0.0,-.535505,-.234923,-.575,-.216506,0.0*
1,1,0.0,-.575,-.216506*
20,1,0.0,-.575,-.216506,-.610697,-.191511,0.0*
1,1,0.0,-.610697,-.191511*
20,1,0.0,-.610697,-.191511,-.641511,-.160697,0.0*
1,1,0.0,-.641511,-.160697*
20,1,0.0,-.641511,-.160697,-.666506,-.125,0.0*
1,1,0.0,-.666506,-.125*
20,1,0.0,-.666506,-.125,-.684923,-.085505,0.0*
1,1,0.0,-.684923,-.085505*
20,1,0.0,-.684923,-.085505,-.696202,-.043412,0.0*
1,1,0.0,-.696202,-.043412*
20,1,0.0,-.696202,-.043412,-.7,0.0,0.0*
1,1,0.0,-.7,0.0*
20,1,0.0,-.7,0.0,-.696202,.043412,0.0*
1,1,0.0,-.696202,.043412*
20,1,0.0,-.696202,.043412,-.684923,.085505,0.0*
1,1,0.0,-.684923,.085505*
20,1,0.0,-.684923,.085505,-.666506,.125,0.0*
1,1,0.0,-.666506,.125*
20,1,0.0,-.666506,.125,-.641511,.160697,0.0*
1,1,0.0,-.641511,.160697*
20,1,0.0,-.641511,.160697,-.610697,.191511,0.0*
1,1,0.0,-.610697,.191511*
20,1,0.0,-.610697,.191511,-.575,.216506,0.0*
1,1,0.0,-.575,.216506*
20,1,0.0,-.575,.216506,-.535505,.234923,0.0*
1,1,0.0,-.535505,.234923*
20,1,0.0,-.535505,.234923,-.493412,.246202,0.0*
1,1,0.0,-.493412,.246202*
20,1,0.0,-.493412,.246202,-.45,.25,0.0*
1,1,0.0,-.45,.25*
%
%ADD10MACRO10*%
%AMMACRO13*
1,1,0.0,.635,0.0*
20,1,0.0,.635,0.0,.625353,-.110267,0.0*
1,1,0.0,.625353,-.110267*
20,1,0.0,.625353,-.110267,.596705,-.217183,0.0*
1,1,0.0,.596705,-.217183*
20,1,0.0,.596705,-.217183,.549926,-.3175,0.0*
1,1,0.0,.549926,-.3175*
20,1,0.0,.549926,-.3175,.486438,-.40817,0.0*
1,1,0.0,.486438,-.40817*
20,1,0.0,.486438,-.40817,.40817,-.486438,0.0*
1,1,0.0,.40817,-.486438*
20,1,0.0,.40817,-.486438,.3175,-.549926,0.0*
1,1,0.0,.3175,-.549926*
20,1,0.0,.3175,-.549926,.217183,-.596705,0.0*
1,1,0.0,.217183,-.596705*
20,1,0.0,.217183,-.596705,.110267,-.625353,0.0*
1,1,0.0,.110267,-.625353*
20,1,0.0,.110267,-.625353,0.0,-.635,0.0*
1,1,0.0,0.0,-.635*
20,1,0.0,0.0,-.635,-.110267,-.625353,0.0*
1,1,0.0,-.110267,-.625353*
20,1,0.0,-.110267,-.625353,-.217183,-.596705,0.0*
1,1,0.0,-.217183,-.596705*
20,1,0.0,-.217183,-.596705,-.3175,-.549926,0.0*
1,1,0.0,-.3175,-.549926*
20,1,0.0,-.3175,-.549926,-.40817,-.486438,0.0*
1,1,0.0,-.40817,-.486438*
20,1,0.0,-.40817,-.486438,-.486438,-.40817,0.0*
1,1,0.0,-.486438,-.40817*
20,1,0.0,-.486438,-.40817,-.549926,-.3175,0.0*
1,1,0.0,-.549926,-.3175*
20,1,0.0,-.549926,-.3175,-.596705,-.217183,0.0*
1,1,0.0,-.596705,-.217183*
20,1,0.0,-.596705,-.217183,-.625353,-.110267,0.0*
1,1,0.0,-.625353,-.110267*
20,1,0.0,-.625353,-.110267,-.635,0.0,0.0*
1,1,0.0,-.635,0.0*
20,1,0.0,-.635,0.0,-.625353,.110267,0.0*
1,1,0.0,-.625353,.110267*
20,1,0.0,-.625353,.110267,-.596705,.217183,0.0*
1,1,0.0,-.596705,.217183*
20,1,0.0,-.596705,.217183,-.549926,.3175,0.0*
1,1,0.0,-.549926,.3175*
20,1,0.0,-.549926,.3175,-.486438,.40817,0.0*
1,1,0.0,-.486438,.40817*
20,1,0.0,-.486438,.40817,-.40817,.486438,0.0*
1,1,0.0,-.40817,.486438*
20,1,0.0,-.40817,.486438,-.3175,.549926,0.0*
1,1,0.0,-.3175,.549926*
20,1,0.0,-.3175,.549926,-.217183,.596705,0.0*
1,1,0.0,-.217183,.596705*
20,1,0.0,-.217183,.596705,-.110267,.625353,0.0*
1,1,0.0,-.110267,.625353*
20,1,0.0,-.110267,.625353,0.0,.635,0.0*
1,1,0.0,0.0,.635*
20,1,0.0,0.0,.635,.110267,.625353,0.0*
1,1,0.0,.110267,.625353*
20,1,0.0,.110267,.625353,.217183,.596705,0.0*
1,1,0.0,.217183,.596705*
20,1,0.0,.217183,.596705,.3175,.549926,0.0*
1,1,0.0,.3175,.549926*
20,1,0.0,.3175,.549926,.40817,.486438,0.0*
1,1,0.0,.40817,.486438*
20,1,0.0,.40817,.486438,.486438,.40817,0.0*
1,1,0.0,.486438,.40817*
20,1,0.0,.486438,.40817,.549926,.3175,0.0*
1,1,0.0,.549926,.3175*
20,1,0.0,.549926,.3175,.596705,.217183,0.0*
1,1,0.0,.596705,.217183*
20,1,0.0,.596705,.217183,.625353,.110267,0.0*
1,1,0.0,.625353,.110267*
20,1,0.0,.625353,.110267,.635,0.0,0.0*
1,1,0.0,.635,0.0*
1,1,0.0,.3175,0.0*
20,1,0.0,.3175,0.0,-.3175,0.0,0.0*
1,1,0.0,-.3175,0.0*
1,1,0.0,0.0,.3175*
20,1,0.0,0.0,.3175,0.0,-.3175,0.0*
1,1,0.0,0.0,-.3175*
%
%ADD13MACRO13*%
%AMMACRO11*
1,1,0.0,.533,0.0*
20,1,0.0,.533,0.0,.524903,-.092554,0.0*
1,1,0.0,.524903,-.092554*
20,1,0.0,.524903,-.092554,.500856,-.182297,0.0*
1,1,0.0,.500856,-.182297*
20,1,0.0,.500856,-.182297,.461592,-.2665,0.0*
1,1,0.0,.461592,-.2665*
20,1,0.0,.461592,-.2665,.408302,-.342606,0.0*
1,1,0.0,.408302,-.342606*
20,1,0.0,.408302,-.342606,.342606,-.408302,0.0*
1,1,0.0,.342606,-.408302*
20,1,0.0,.342606,-.408302,.2665,-.461592,0.0*
1,1,0.0,.2665,-.461592*
20,1,0.0,.2665,-.461592,.182297,-.500856,0.0*
1,1,0.0,.182297,-.500856*
20,1,0.0,.182297,-.500856,.092554,-.524903,0.0*
1,1,0.0,.092554,-.524903*
20,1,0.0,.092554,-.524903,0.0,-.533,0.0*
1,1,0.0,0.0,-.533*
20,1,0.0,0.0,-.533,-.092554,-.524903,0.0*
1,1,0.0,-.092554,-.524903*
20,1,0.0,-.092554,-.524903,-.182297,-.500856,0.0*
1,1,0.0,-.182297,-.500856*
20,1,0.0,-.182297,-.500856,-.2665,-.461592,0.0*
1,1,0.0,-.2665,-.461592*
20,1,0.0,-.2665,-.461592,-.342606,-.408302,0.0*
1,1,0.0,-.342606,-.408302*
20,1,0.0,-.342606,-.408302,-.408302,-.342606,0.0*
1,1,0.0,-.408302,-.342606*
20,1,0.0,-.408302,-.342606,-.461592,-.2665,0.0*
1,1,0.0,-.461592,-.2665*
20,1,0.0,-.461592,-.2665,-.500856,-.182297,0.0*
1,1,0.0,-.500856,-.182297*
20,1,0.0,-.500856,-.182297,-.524903,-.092554,0.0*
1,1,0.0,-.524903,-.092554*
20,1,0.0,-.524903,-.092554,-.533,0.0,0.0*
1,1,0.0,-.533,0.0*
20,1,0.0,-.533,0.0,-.524903,.092554,0.0*
1,1,0.0,-.524903,.092554*
20,1,0.0,-.524903,.092554,-.500856,.182297,0.0*
1,1,0.0,-.500856,.182297*
20,1,0.0,-.500856,.182297,-.461592,.2665,0.0*
1,1,0.0,-.461592,.2665*
20,1,0.0,-.461592,.2665,-.408302,.342606,0.0*
1,1,0.0,-.408302,.342606*
20,1,0.0,-.408302,.342606,-.342606,.408302,0.0*
1,1,0.0,-.342606,.408302*
20,1,0.0,-.342606,.408302,-.2665,.461592,0.0*
1,1,0.0,-.2665,.461592*
20,1,0.0,-.2665,.461592,-.182297,.500856,0.0*
1,1,0.0,-.182297,.500856*
20,1,0.0,-.182297,.500856,-.092554,.524903,0.0*
1,1,0.0,-.092554,.524903*
20,1,0.0,-.092554,.524903,0.0,.533,0.0*
1,1,0.0,0.0,.533*
20,1,0.0,0.0,.533,.092554,.524903,0.0*
1,1,0.0,.092554,.524903*
20,1,0.0,.092554,.524903,.182297,.500856,0.0*
1,1,0.0,.182297,.500856*
20,1,0.0,.182297,.500856,.2665,.461592,0.0*
1,1,0.0,.2665,.461592*
20,1,0.0,.2665,.461592,.342606,.408302,0.0*
1,1,0.0,.342606,.408302*
20,1,0.0,.342606,.408302,.408302,.342606,0.0*
1,1,0.0,.408302,.342606*
20,1,0.0,.408302,.342606,.461592,.2665,0.0*
1,1,0.0,.461592,.2665*
20,1,0.0,.461592,.2665,.500856,.182297,0.0*
1,1,0.0,.500856,.182297*
20,1,0.0,.500856,.182297,.524903,.092554,0.0*
1,1,0.0,.524903,.092554*
20,1,0.0,.524903,.092554,.533,0.0,0.0*
1,1,0.0,.533,0.0*
1,1,0.0,-.222,-.266*
20,1,0.0,-.222,-.266,0.0,.267,0.0*
1,1,0.0,0.0,.267*
20,1,0.0,0.0,.267,.223,-.266,0.0*
1,1,0.0,.223,-.266*
1,1,0.0,.143,-.079*
20,1,0.0,.143,-.079,-.142,-.079,0.0*
1,1,0.0,-.142,-.079*
%
%ADD11MACRO11*%
%AMMACRO12*
1,1,0.0,.3935,0.0*
20,1,0.0,.3935,0.0,.387522,-.068331,0.0*
1,1,0.0,.387522,-.068331*
20,1,0.0,.387522,-.068331,.369769,-.134585,0.0*
1,1,0.0,.369769,-.134585*
20,1,0.0,.369769,-.134585,.340781,-.19675,0.0*
1,1,0.0,.340781,-.19675*
20,1,0.0,.340781,-.19675,.301438,-.252937,0.0*
1,1,0.0,.301438,-.252937*
20,1,0.0,.301438,-.252937,.252937,-.301438,0.0*
1,1,0.0,.252937,-.301438*
20,1,0.0,.252937,-.301438,.19675,-.340781,0.0*
1,1,0.0,.19675,-.340781*
20,1,0.0,.19675,-.340781,.134585,-.369769,0.0*
1,1,0.0,.134585,-.369769*
20,1,0.0,.134585,-.369769,.068331,-.387522,0.0*
1,1,0.0,.068331,-.387522*
20,1,0.0,.068331,-.387522,0.0,-.3935,0.0*
1,1,0.0,0.0,-.3935*
20,1,0.0,0.0,-.3935,-.068331,-.387522,0.0*
1,1,0.0,-.068331,-.387522*
20,1,0.0,-.068331,-.387522,-.134585,-.369769,0.0*
1,1,0.0,-.134585,-.369769*
20,1,0.0,-.134585,-.369769,-.19675,-.340781,0.0*
1,1,0.0,-.19675,-.340781*
20,1,0.0,-.19675,-.340781,-.252937,-.301438,0.0*
1,1,0.0,-.252937,-.301438*
20,1,0.0,-.252937,-.301438,-.301438,-.252937,0.0*
1,1,0.0,-.301438,-.252937*
20,1,0.0,-.301438,-.252937,-.340781,-.19675,0.0*
1,1,0.0,-.340781,-.19675*
20,1,0.0,-.340781,-.19675,-.369769,-.134585,0.0*
1,1,0.0,-.369769,-.134585*
20,1,0.0,-.369769,-.134585,-.387522,-.068331,0.0*
1,1,0.0,-.387522,-.068331*
20,1,0.0,-.387522,-.068331,-.3935,0.0,0.0*
1,1,0.0,-.3935,0.0*
20,1,0.0,-.3935,0.0,-.387522,.068331,0.0*
1,1,0.0,-.387522,.068331*
20,1,0.0,-.387522,.068331,-.369769,.134585,0.0*
1,1,0.0,-.369769,.134585*
20,1,0.0,-.369769,.134585,-.340781,.19675,0.0*
1,1,0.0,-.340781,.19675*
20,1,0.0,-.340781,.19675,-.301438,.252937,0.0*
1,1,0.0,-.301438,.252937*
20,1,0.0,-.301438,.252937,-.252937,.301438,0.0*
1,1,0.0,-.252937,.301438*
20,1,0.0,-.252937,.301438,-.19675,.340781,0.0*
1,1,0.0,-.19675,.340781*
20,1,0.0,-.19675,.340781,-.134585,.369769,0.0*
1,1,0.0,-.134585,.369769*
20,1,0.0,-.134585,.369769,-.068331,.387522,0.0*
1,1,0.0,-.068331,.387522*
20,1,0.0,-.068331,.387522,0.0,.3935,0.0*
1,1,0.0,0.0,.3935*
20,1,0.0,0.0,.3935,.068331,.387522,0.0*
1,1,0.0,.068331,.387522*
20,1,0.0,.068331,.387522,.134585,.369769,0.0*
1,1,0.0,.134585,.369769*
20,1,0.0,.134585,.369769,.19675,.340781,0.0*
1,1,0.0,.19675,.340781*
20,1,0.0,.19675,.340781,.252937,.301438,0.0*
1,1,0.0,.252937,.301438*
20,1,0.0,.252937,.301438,.301438,.252937,0.0*
1,1,0.0,.301438,.252937*
20,1,0.0,.301438,.252937,.340781,.19675,0.0*
1,1,0.0,.340781,.19675*
20,1,0.0,.340781,.19675,.369769,.134585,0.0*
1,1,0.0,.369769,.134585*
20,1,0.0,.369769,.134585,.387522,.068331,0.0*
1,1,0.0,.387522,.068331*
20,1,0.0,.387522,.068331,.3935,0.0,0.0*
1,1,0.0,.3935,0.0*
1,1,0.0,-.163,-.196*
20,1,0.0,-.163,-.196,0.0,.197,0.0*
1,1,0.0,0.0,.197*
20,1,0.0,0.0,.197,.164,-.196,0.0*
1,1,0.0,.164,-.196*
1,1,0.0,.105,-.058*
20,1,0.0,.105,-.058,-.104,-.058,0.0*
1,1,0.0,-.104,-.058*
%
%ADD12MACRO12*%
%LPD*%
G75*
G54D10*
X329900Y4939400D03*
X10149000Y440000D03*
X9779000D03*
Y1465000D03*
X10149000D03*
G54D11*
X329900Y5129900D03*
X571500Y2286000D03*
Y2540000D03*
Y2794000D03*
Y3048000D03*
Y3302000D03*
Y3937000D03*
X825500D03*
X1079500D03*
X1333500D03*
X1587500D03*
X7239000Y2159000D03*
Y2413000D03*
Y2667000D03*
Y2921000D03*
Y3175000D03*
G54D12*
X329900Y5320400D03*
X952500Y698500D03*
X698500D03*
X825500Y1333500D03*
Y1587500D03*
X1397000Y698500D03*
X1651000D03*
X1333500Y2603500D03*
Y2222500D03*
Y3238500D03*
Y2921000D03*
X2159000Y698500D03*
X2413000D03*
X2349500Y2603500D03*
Y2222500D03*
Y3238500D03*
Y2921000D03*
X3175000Y889000D03*
X2921000D03*
Y1714500D03*
X4064000Y889000D03*
X3810000D03*
X3683000Y1714500D03*
X4635500Y1206500D03*
Y1460500D03*
X4762500Y2857500D03*
Y3111500D03*
X4254500Y3746500D03*
X5715000Y1016000D03*
Y1397000D03*
Y1778000D03*
Y2159000D03*
X5651500Y2603500D03*
Y2984500D03*
Y3492500D03*
X5270500Y3746500D03*
X6731000Y1016000D03*
Y1397000D03*
Y1778000D03*
Y2159000D03*
X6667500Y2603500D03*
Y2984500D03*
Y3492500D03*
X8255000Y571500D03*
Y1206500D03*
X8636000Y3683000D03*
X8318500D03*
X9271000Y571500D03*
Y1206500D03*
X9334500Y2413000D03*
Y3175000D03*
Y3810000D03*
X10096500Y1968500D03*
Y2222500D03*
Y3238500D03*
Y2984500D03*
X10350500Y3810000D03*
G54D13*
X329900Y5510900D03*
X508000Y1651000D03*
D03*
X2349500Y508000D03*
X1968500Y1270000D03*
X3171200Y1400800D03*
X3396600Y2397600D03*
X3302000Y2540000D03*
X2851200Y2470200D03*
X3111500Y2667000D03*
X3091200Y2052300D03*
X3429000Y2857500D03*
X2984500D03*
X3011200Y3003500D03*
D03*
X3411200D03*
X3111500Y3429000D03*
X3411200Y3446800D03*
X3302000Y3556000D03*
X3746500Y2349500D03*
X4116100Y2973100D03*
X4127500Y3492500D03*
X4318000Y1778000D03*
X4508500Y3111500D03*
D03*
X4318000Y3302000D03*
X4953000Y3556000D03*
X5524500Y1905000D03*
X8001000Y3302000D03*
X8699500Y1778000D03*
X8191500D03*
X8544600Y1708800D03*
X8624600Y1866900D03*
X8544600Y1708800D03*
X8128000Y1587500D03*
X8382000Y2667000D03*
X8224500Y2824500D03*
X8509000Y2857500D03*
X8763000Y3302000D03*
X8802400Y3072100D03*
X8948400Y3233400D03*
M02*
