G04 ================== begin FILE IDENTIFICATION RECORD ==================*
G04 Layout Name:  C:/USERS/USER/DESKTOP/WORK/AVRUSB500/ALLEGRO/AVRUSB500.brd*
G04 Film Name:    SilkBot*
G04 File Format:  Gerber RS274X*
G04 File Origin:  Cadence Allegro 16.6-S034*
G04 Origin Date:  Fri Jul 19 12:48:53 2019*
G04 *
G04 Layer:  MANUFACTURING/AUTOSILK_BOTTOM*
G04 *
G04 Offset:    (0.000 0.000)*
G04 Mirror:    No*
G04 Mode:      Positive*
G04 Rotation:  0*
G04 FullContactRelief:  No*
G04 UndefLineWidth:     0.000*
G04 ================== end FILE IDENTIFICATION RECORD ====================*
%FSLAX55Y55*MOMM*%
%IR0*IPPOS*OFA0.00000B0.00000*MIA0B0*SFA1.00000B1.00000*%
%ADD10C,.2*%
G75*
%LPD*%
G75*
G54D10*
G01X5140000Y650000D02*
Y730000D01*
G01Y708000D02*
X5136000Y718000D01*
X5129300Y726000D01*
X5120000Y730000D01*
X5110700Y726000D01*
X5104000Y718000D01*
X5100000Y708000D01*
Y650000D01*
G01Y708000D02*
X5096000Y718000D01*
X5089300Y726000D01*
X5080000Y730000D01*
X5070700Y726000D01*
X5064000Y718000D01*
X5060000Y706000D01*
Y650000D01*
G01X5024800Y664000D02*
X5018100Y656000D01*
X5008800Y650000D01*
X5000800D01*
X4992800Y654000D01*
X4987500Y660000D01*
X4984800Y668000D01*
X4986100Y680000D01*
X4991500Y686000D01*
X5015500Y698000D01*
X5020800Y712000D01*
X5018100Y722000D01*
X5012800Y728000D01*
X5004800Y730000D01*
X4996800Y728000D01*
X4988800Y722000D01*
G01X4888300Y720000D02*
X4897600Y728000D01*
X4905600Y730000D01*
X4916300Y726000D01*
X4924300Y718000D01*
X4929600Y704000D01*
X4930900Y690000D01*
X4929600Y676000D01*
X4924300Y664000D01*
X4916300Y654000D01*
X4905600Y650000D01*
X4896300Y654000D01*
X4888300Y662000D01*
G01X4837100Y650000D02*
Y770000D01*
G01Y712000D02*
X4830400Y722000D01*
X4823700Y728000D01*
X4813100Y730000D01*
X4805100Y728000D01*
X4795700Y720000D01*
X4791700Y708000D01*
Y650000D01*
G01X4719200D02*
X4727200Y652000D01*
X4735200Y660000D01*
X4740500Y674000D01*
X4743200Y690000D01*
X4740500Y706000D01*
X4735200Y720000D01*
X4727200Y728000D01*
X4719200Y730000D01*
X4711200Y728000D01*
X4703200Y720000D01*
X4697900Y706000D01*
X4696500Y690000D01*
X4697900Y674000D01*
X4703200Y660000D01*
X4711200Y652000D01*
X4719200Y650000D01*
G01X4624000Y730000D02*
Y650000D01*
G01Y762000D02*
X4626700Y764000D01*
Y768000D01*
X4624000Y770000D01*
X4621300Y768000D01*
Y764000D01*
X4624000Y762000D01*
M02*
