G04 ================== begin FILE IDENTIFICATION RECORD ==================*
G04 Layout Name:  C:/USERS/USER/DESKTOP/WORK/AVRUSB500/ALLEGRO/AVRUSB500.brd*
G04 Film Name:    SolderB*
G04 File Format:  Gerber RS274X*
G04 File Origin:  Cadence Allegro 16.6-S034*
G04 Origin Date:  Fri Jul 19 12:48:53 2019*
G04 *
G04 Layer:  VIA CLASS/SOLDERMASK_BOTTOM*
G04 Layer:  PIN/SOLDERMASK_BOTTOM*
G04 Layer:  PACKAGE GEOMETRY/SOLDERMASK_BOTTOM*
G04 Layer:  BOARD GEOMETRY/SOLDERMASK_BOTTOM*
G04 *
G04 Offset:    (0.000 0.000)*
G04 Mirror:    No*
G04 Mode:      Positive*
G04 Rotation:  0*
G04 FullContactRelief:  No*
G04 UndefLineWidth:     0.000*
G04 ================== end FILE IDENTIFICATION RECORD ====================*
%FSLAX55Y55*MOMM*%
%IR0*IPPOS*OFA0.00000B0.00000*MIA0B0*SFA1.00000B1.00000*%
%ADD11C,1.321*%
%ADD12C,1.118*%
%ADD10R,1.321X1.321*%
%ADD13C,1.575*%
%ADD14R,1.575X1.575*%
%ADD15O,1.9X1.2*%
%LPD*%
G75*
G54D10*
X952500Y698500D03*
X825500Y1333500D03*
X1397000Y698500D03*
X2159000D03*
X3175000Y889000D03*
X4064000D03*
X4635500Y1206500D03*
X4762500Y2857500D03*
X8636000Y3683000D03*
X10096500Y1968500D03*
Y3238500D03*
G54D11*
X698500Y698500D03*
X825500Y1587500D03*
X1651000Y698500D03*
X1333500Y2603500D03*
Y2222500D03*
Y3238500D03*
Y2921000D03*
X2413000Y698500D03*
X2349500Y2603500D03*
Y2222500D03*
Y3238500D03*
Y2921000D03*
X2921000Y889000D03*
Y1714500D03*
X3810000Y889000D03*
X3683000Y1714500D03*
X4635500Y1460500D03*
X4762500Y3111500D03*
X4254500Y3746500D03*
X5715000Y1016000D03*
Y1397000D03*
Y1778000D03*
Y2159000D03*
X5651500Y2603500D03*
Y2984500D03*
Y3492500D03*
X5270500Y3746500D03*
X6731000Y1016000D03*
Y1397000D03*
Y1778000D03*
Y2159000D03*
X6667500Y2603500D03*
Y2984500D03*
Y3492500D03*
X8255000Y571500D03*
Y1206500D03*
X8318500Y3683000D03*
X9271000Y571500D03*
Y1206500D03*
X9334500Y2413000D03*
Y3175000D03*
Y3810000D03*
X10096500Y2222500D03*
Y2984500D03*
X10350500Y3810000D03*
G54D12*
X508000Y1651000D03*
D03*
X2349500Y508000D03*
X1968500Y1270000D03*
X3171200Y1400800D03*
X3396600Y2397600D03*
X3302000Y2540000D03*
X2851200Y2470200D03*
X3111500Y2667000D03*
X3091200Y2052300D03*
X3429000Y2857500D03*
X2984500D03*
X3011200Y3003500D03*
D03*
X3411200D03*
X3111500Y3429000D03*
X3411200Y3446800D03*
X3302000Y3556000D03*
X3746500Y2349500D03*
X4116100Y2973100D03*
X4127500Y3492500D03*
X4318000Y1778000D03*
X4508500Y3111500D03*
D03*
X4318000Y3302000D03*
X4953000Y3556000D03*
X5524500Y1905000D03*
X8001000Y3302000D03*
X8699500Y1778000D03*
X8191500D03*
X8544600Y1708800D03*
X8624600Y1866900D03*
X8544600Y1708800D03*
X8128000Y1587500D03*
X8382000Y2667000D03*
X8224500Y2824500D03*
X8509000Y2857500D03*
X8763000Y3302000D03*
X8802400Y3072100D03*
X8948400Y3233400D03*
G54D13*
X571500Y2286000D03*
Y2540000D03*
Y2794000D03*
Y3048000D03*
Y3937000D03*
X825500D03*
X1079500D03*
X1333500D03*
X7239000Y2159000D03*
Y2413000D03*
Y2667000D03*
Y2921000D03*
G54D14*
X571500Y3302000D03*
X1587500Y3937000D03*
X7239000Y3175000D03*
G54D15*
X10149000Y440000D03*
X9779000D03*
Y1465000D03*
X10149000D03*
M02*
